<svg width="615" height="162" viewBox="0 0 615 162" fill="none" xmlns="http://www.w3.org/2000/svg">
<path d="M37.6808 102.594C41.2408 80.4938 22.0008 75.7038 15.5808 81.6638C9.16078 87.6238 -5.08922 121.484 21.6408 131.824C48.3708 142.164 60.8508 127.904 63.3408 108.304C65.8308 88.7038 72.6108 21.3338 70.1108 14.2038C67.6108 7.07378 61.9108 122.054 63.6908 135.854C65.4708 149.654 58.0008 102.244 70.6508 86.2038C83.3008 70.1638 104.321 71.9438 106.111 93.6938C107.901 115.444 124.641 128.264 130.351 119.714C136.061 111.164 132.491 102.964 130.351 95.4738C128.211 87.9838 125.101 119.714 133.431 126.484C141.761 133.254 161.721 146.294 179.181 81.6738C196.641 17.0538 175.621 6.36378 172.051 6.00378C168.481 5.64378 144.601 30.9538 158.511 87.6238C172.421 144.294 179.181 150.004 192.731 150.004C206.281 150.004 244.061 114.714 246.551 66.9538C249.041 19.1938 238.001 23.1138 234.791 23.1138C231.581 23.1138 221.961 36.1438 224.451 81.6738C226.941 127.204 231.591 159.634 246.911 154.994C262.231 150.354 275.021 122.464 277.201 117.924C296.331 78.1238 310.111 54.3638 358.111 56.7338C406.111 59.1038 348.921 65.3338 337.201 62.9138C325.481 60.4938 333.871 9.68378 334.821 20.1438C335.771 30.6038 316.761 117.574 362.861 126.604C408.961 135.634 411.811 117.574 405.161 100.944C398.511 84.3138 403.401 118.524 407.841 125.184C412.281 131.844 427.491 149.894 451.261 103.324C475.021 56.7538 472.651 128.514 468.841 138.494C465.031 148.474 484.051 105.704 493.551 96.6738C503.051 87.6438 505.911 128.044 503.531 131.844C501.151 135.644 516.361 94.7738 529.191 86.2238C542.021 77.6738 531.571 126.144 545.351 129.944C559.131 133.744 585.751 97.6238 579.091 84.7938C572.441 71.9638 552.481 75.2938 553.431 97.1538C554.381 119.014 571.491 145.154 608.081 118.064" stroke="#2C2C28" stroke-width="12" stroke-miterlimit="10" stroke-linecap="round"/>
</svg>
