<svg width="464" height="547" viewBox="0 0 464 547" fill="none" xmlns="http://www.w3.org/2000/svg">
<g clip-path="url(#clip0_927_18)">
<path d="M3.26074 309.405C3.26074 309.405 6.88049 417.986 38.8061 471.569C70.7316 525.152 124.969 550.752 155.584 533.022C186.198 515.292 198.825 456.488 198.825 456.488C195.988 381.514 195.982 352.618 175.111 255.15C154.24 157.681 152.942 85.8983 123.593 57.8376C94.2437 29.777 28.3707 3.02148 28.3707 3.02148" fill="#BE3232"/>
<path d="M133.292 541.845C121.826 541.845 109.121 538.523 96.2071 531.952C72.8581 520.068 51.4787 499.219 36.0084 473.246C22.5468 450.654 12.3985 416.205 5.83726 370.864C0.965267 337.23 0.00652208 309.79 0 309.516L6.51555 309.3C6.55469 310.377 10.481 417.667 41.6043 469.905C71.1819 519.559 123.685 547.731 153.947 530.203C181.692 514.136 194.39 461.245 195.545 456.188C195.388 451.992 195.238 447.946 195.088 444.017C192.636 377.657 191.514 347.371 171.915 255.835C165.602 226.339 161.043 199.035 157.025 174.935C147.738 119.264 141.033 79.0332 121.33 60.1934C92.783 32.8962 27.7971 6.31038 27.1449 6.04936L29.5972 0C32.3104 1.10285 96.3832 27.3102 125.843 55.4818C147.118 75.8225 153.98 116.948 163.469 173.865C167.474 197.886 172.02 225.118 178.301 254.471C198.017 346.569 199.145 377.031 201.61 443.782C201.76 447.835 201.917 452.025 202.08 456.371L202.093 456.782L202.008 457.18C201.48 459.64 188.723 517.608 157.215 535.854C150.295 539.861 142.162 541.851 133.285 541.851L133.292 541.845Z" fill="#231815"/>
<path d="M52.8352 479.929C52.8939 480.007 52.9526 480.092 53.0048 480.183C52.9787 479.4 52.3983 479.38 52.8352 479.929Z" fill="#8B0700"/>
<path d="M376.624 307.519C376.624 307.519 376.566 307.551 376.54 307.564C347.256 322.645 317.965 337.733 288.681 352.814L241.839 376.939C237 379.432 232.167 381.919 227.334 384.411C225.41 385.403 223.056 387.159 220.871 387.505C219.312 387.753 217.531 387.381 215.966 387.309C211.903 387.12 207.84 387.028 203.776 386.996C190.204 386.898 176.612 387.518 163.118 388.966C146.689 390.728 130.286 393.782 114.567 398.964C99.2145 404.021 84.0702 411.337 72.337 422.685C60.4603 434.17 53.56 449.349 52.6012 465.846C52.4577 468.326 52.4316 470.812 52.5034 473.292C52.5686 475.458 53.2273 478.043 53.0186 480.196C53.1817 480.477 53.3121 480.796 53.4556 481.064C54.1143 482.278 54.7796 483.498 55.4383 484.712C59.8146 492.765 64.1975 500.824 68.5738 508.877C71.4696 514.208 73.9414 519.272 78.5199 523.416C84.9964 529.276 93.4229 532.748 101.719 535.143C123.111 541.323 146.291 541.375 168.316 539.508C187.791 537.857 208.303 534.745 226.421 527.057C229.943 525.563 233.184 523.71 236.393 521.648C244.233 516.61 252.098 511.604 259.964 506.606C275.017 497.046 290.096 487.518 305.09 477.853C333.5 459.549 361.63 440.735 388.429 420.12C402.067 409.633 415.339 398.657 428.116 387.139C434.43 381.442 440.626 375.615 446.685 369.65C449.887 366.498 453.089 363.333 456.174 360.07C457.218 358.968 458.183 357.806 459.129 356.612L385.018 294.291" fill="#F5B997"/>
<path d="M385.018 294.291L379.396 289.56C378.555 292.934 377.889 296.347 377.407 299.786C354.234 311.721 331.054 323.657 307.881 335.592C279.086 350.419 250.291 365.252 221.496 380.078C220.994 380.333 220.186 380.607 219.566 380.953C217.159 380.509 214.42 380.705 212 380.626C199.843 380.241 187.66 380.496 175.529 381.344C142.351 383.661 106.023 389.736 78.2978 409.372C64.4188 419.2 53.5269 432.695 48.805 449.212C46.2222 458.257 45.4983 467.817 46.1635 477.181C46.3983 480.496 46.894 482.669 48.4136 485.475C50.3833 489.104 52.3595 492.732 54.3291 496.354C58.4185 503.878 62.4557 511.441 66.6037 518.933C70.0343 525.139 75.4672 530 81.4805 533.648C99.8663 544.801 123.457 546.85 144.464 546.993C167.148 547.144 190.275 544.553 212.202 538.647C220.218 536.487 228.39 533.883 235.649 529.779C242.543 525.876 249.091 521.236 255.776 516.982C263.675 511.95 271.579 506.945 279.484 501.927C338.522 464.443 397.664 426.267 448.086 377.383C451.302 374.264 454.485 371.112 457.622 367.914C459.917 365.578 461.965 363.19 463.987 360.71L459.115 356.612C458.17 357.799 457.204 358.968 456.161 360.07C453.076 363.333 449.867 366.498 446.671 369.65C440.612 375.615 434.416 381.449 428.103 387.139C415.326 398.657 402.054 409.633 388.416 420.12C361.61 440.735 333.48 459.542 305.077 477.853C290.083 487.511 275.004 497.039 259.951 506.606C252.085 511.604 244.219 516.61 236.38 521.648C233.171 523.71 229.923 525.563 226.408 527.057C208.289 534.745 187.777 537.857 168.302 539.508C146.277 541.375 123.104 541.323 101.706 535.143C93.4159 532.748 84.9894 529.276 78.5065 523.416C73.928 519.272 71.4561 514.208 68.5603 508.877C64.184 500.824 59.8012 492.765 55.4249 484.712C54.7661 483.498 54.1009 482.278 53.4421 481.064C53.2987 480.796 53.1682 480.477 53.0052 480.196C53.2139 478.043 52.5551 475.458 52.4899 473.292C52.4182 470.812 52.4443 468.326 52.5878 465.846C53.5465 449.349 60.4534 434.17 72.3236 422.685C84.0502 411.343 99.201 404.028 114.554 398.964C130.272 393.782 146.669 390.735 163.104 388.966C176.598 387.518 190.191 386.891 203.763 386.996C207.826 387.028 211.889 387.12 215.953 387.309C217.518 387.381 219.299 387.753 220.857 387.505C223.042 387.159 225.397 385.403 227.321 384.411C232.154 381.919 236.993 379.432 241.826 376.939L288.667 352.814C317.951 337.733 347.242 322.645 376.526 307.564C376.552 307.551 376.585 307.532 376.611 307.519M52.8356 479.929C52.3986 479.38 52.9791 479.393 53.0052 480.183C52.953 480.092 52.8943 480.007 52.8356 479.929Z" fill="#231815"/>
</g>
<defs>
<clipPath id="clip0_927_18">
<rect width="464" height="547" fill="white"/>
</clipPath>
</defs>
</svg>
