<svg width="223" height="583" viewBox="0 0 223 583" fill="none" xmlns="http://www.w3.org/2000/svg">
<g clip-path="url(#clip0_932_25)">
<path d="M3.2959 84.2173C3.2959 84.2173 25.3278 449.826 57.6557 507.515C89.9836 565.211 144.905 592.775 175.905 573.68C206.906 554.584 219.692 491.278 219.692 491.278C216.819 410.552 216.812 379.437 195.678 274.493C174.545 169.55 173.224 92.2635 143.505 62.0459C113.792 31.8348 47.0889 3.02969 47.0889 3.02969" fill="#BE3232"/>
<path d="M153.351 583C148.068 583 142.514 582.254 136.748 580.762C106.547 572.927 75.1369 545.475 54.7759 509.132C41.1446 484.803 27.7842 405.879 15.071 274.553C5.62024 177.009 0.0528342 85.3328 0 84.4154L6.59107 84.0193C6.80901 87.6695 28.9399 449.529 60.5348 505.905C80.0504 540.736 109.889 566.967 138.406 574.373C152.255 577.97 164.625 576.756 174.175 570.875C202.401 553.495 215.266 496.162 216.376 490.994C216.217 486.459 216.059 482.076 215.914 477.832C213.43 406.361 212.294 373.747 192.442 275.147C186.049 243.398 181.439 213.999 177.371 188.065C167.96 128.059 161.158 84.7058 141.153 64.3627C112.233 34.9635 46.4347 6.3432 45.7742 6.05937L48.3961 0C51.1435 1.18811 116.037 29.4124 145.862 59.7356C167.352 81.5837 174.293 125.821 183.896 187.042C187.951 212.91 192.554 242.236 198.921 273.847C218.879 372.975 220.021 405.76 222.518 477.601C222.67 481.971 222.828 486.486 222.993 491.159L223.007 491.548L222.927 491.931C222.392 494.571 209.494 556.875 177.635 576.492C170.615 580.815 162.393 582.993 153.345 582.993L153.351 583Z" fill="#231815"/>
</g>
<defs>
<clipPath id="clip0_932_25">
<rect width="223" height="583" fill="white"/>
</clipPath>
</defs>
</svg>
