<svg width="357" height="202" viewBox="0 0 357 202" fill="none" xmlns="http://www.w3.org/2000/svg">
<path d="M0.342707 155.044C0.399165 155.119 0.455624 155.201 0.505809 155.289C0.480717 154.536 -0.0775918 154.518 0.342707 155.044Z" fill="#8B0700"/>
<path d="M0.342707 155.044C-0.0775918 154.517 0.480717 154.53 0.505809 155.288C0.455624 155.201 0.399165 155.119 0.342707 155.044Z" fill="#231815"/>
<path d="M148.401 69.6221H147.78C147.548 69.6221 147.309 69.6221 147.077 69.6221C111.439 69.6221 79.7352 74.2473 55.3328 83.0088C31.6016 91.5322 15.7118 103.578 9.3634 117.854C2.08032 134.249 7.77003 153.421 25.8241 173.294C43.533 192.791 73.0731 196.219 94.7279 195.661C122.618 194.941 148.263 187.376 161.311 180.194C165.081 178.12 168.769 176.089 172.377 174.109C250.063 131.41 289.552 109.707 347.766 49.5985L301.019 7.29498L148.401 69.6221V69.6221Z" fill="#F5B997"/>
<path d="M147.171 63.355H147.083C72.8281 63.355 17.8819 83.2407 3.63568 115.31C-2.19832 128.446 -3.89206 149.898 21.1816 177.505C39.2921 197.441 68.0543 201.985 90.5057 201.985C91.9925 201.985 93.4604 201.966 94.8907 201.929C123.835 201.183 150.627 193.236 164.34 185.684C168.11 183.61 171.799 181.585 175.406 179.599C254.648 136.048 294.426 114.188 354.541 51.6165L356.774 49.2914L302.305 0L147.177 63.3487L147.171 63.355ZM172.376 174.115C168.769 176.095 165.081 178.126 161.31 180.2C148.262 187.383 122.618 194.947 94.7276 195.668C73.079 196.226 43.5389 192.797 25.8237 173.3C7.76966 153.427 2.07995 134.256 9.36303 117.861C15.7051 103.584 31.6012 91.5385 55.3324 83.0151C79.7348 74.2536 111.439 69.6284 147.077 69.6284C147.309 69.6284 147.547 69.6284 147.779 69.6284H148.4L301.019 7.30128L347.766 49.6048C289.552 109.713 250.062 131.417 172.376 174.115V174.115Z" fill="#231815"/>
</svg>
