<svg width="829" height="391" viewBox="0 0 829 391" fill="none" xmlns="http://www.w3.org/2000/svg">
<path d="M810.141 13.4697C802.232 7.3897 792.167 5.37708 782.522 7.94246L6.44141 214.795V384.837L183.718 380.234L283.662 375.837C304.327 364.998 632.618 226.378 646.84 220.37L653.53 217.546L585.259 384.915H822.591V38.745C822.591 28.7659 818.057 19.5497 810.141 13.4697Z" fill="#2C2926"/>
<path d="M813.805 8.70483C804.401 1.47732 792.444 -0.919868 780.985 2.13816L2.67041 209.585L0.442383 210.18V391L183.911 386.236L284.635 381.808L285.482 381.754L286.167 381.309C293.548 376.527 518.604 281.049 642.486 228.732L576.323 390.922H828.597V38.7444C828.597 26.8788 823.204 15.9323 813.805 8.70483ZM822.591 384.914H585.259L653.53 217.546L646.84 220.369C632.619 226.371 304.327 364.992 283.662 375.836L183.719 380.234L6.44189 384.836V214.794L782.529 7.94182C792.167 5.37644 802.233 7.38906 810.148 13.4691C818.057 19.5491 822.597 28.7652 822.597 38.7444V384.914H822.591Z" fill="#231815"/>
</svg>
