<svg width="818" height="1123" viewBox="0 0 818 1123" fill="none" xmlns="http://www.w3.org/2000/svg">
<g clip-path="url(#clip0_928_57)">
<path d="M524.994 306.552C525.098 306.601 525.068 306.583 524.994 306.552V306.552Z" fill="white" stroke="#231815" stroke-miterlimit="10"/>
<path d="M628.302 242.839C628.302 242.839 628.273 242.851 628.255 242.857C628.273 242.851 628.291 242.839 628.308 242.833L628.302 242.839Z" fill="white" stroke="#231815" stroke-miterlimit="10"/>
<path d="M550.7 304.089C550.736 304.059 550.772 304.029 550.814 304.005C550.79 304.023 550.778 304.029 550.754 304.041C550.736 304.053 550.718 304.071 550.7 304.083V304.089Z" fill="white" stroke="#231815" stroke-miterlimit="10"/>
<path d="M628.25 242.863C628.178 242.893 628.1 242.923 628.028 242.953C628.028 242.953 628.166 242.899 628.25 242.863Z" fill="white" stroke="#231815" stroke-miterlimit="10"/>
<path d="M532.895 280.427C523.434 283.812 513.244 284.744 503.316 283.405C503.358 283.507 503.4 283.602 503.448 283.704C503.693 284.272 503.95 284.84 504.213 285.402C505.289 287.686 506.502 289.899 507.877 292.016C508.522 293.014 509.204 293.983 509.921 294.928C509.998 295.023 510.238 295.334 510.315 295.43C510.524 295.681 510.734 295.938 510.943 296.183C511.319 296.62 511.702 297.05 512.09 297.469C512.963 298.402 513.883 299.299 514.84 300.148C515.306 300.561 515.778 300.961 516.262 301.35C516.364 301.434 517.171 302.043 516.633 301.649C516.866 301.822 517.099 301.996 517.332 302.169C519.37 303.652 521.54 304.938 523.817 306.02C524.14 306.169 524.462 306.319 524.791 306.462C524.821 306.474 524.845 306.486 524.869 306.498C525.012 306.558 525.162 306.618 525.305 306.678C525.879 306.905 526.464 307.12 527.05 307.318C528.258 307.724 529.483 308.071 530.726 308.34C531.407 308.49 532.089 308.615 532.782 308.723C532.83 308.729 532.985 308.753 533.087 308.765C533.117 308.765 533.141 308.765 533.147 308.771C533.493 308.806 533.834 308.842 534.181 308.872C535.466 308.974 536.756 308.992 538.047 308.914C538.388 308.896 538.735 308.866 539.075 308.836C539.201 308.824 540.002 308.711 539.751 308.759C540.283 308.675 540.809 308.585 541.335 308.472C542.65 308.185 543.941 307.796 545.196 307.3C545.303 307.258 545.865 307.007 545.333 307.246C545.447 307.192 545.56 307.144 545.674 307.096C545.901 306.995 546.128 306.887 546.349 306.779C546.827 306.546 547.294 306.301 547.754 306.038C548.698 305.5 549.607 304.908 550.479 304.262C550.527 304.226 550.575 304.184 550.629 304.148C550.497 304.238 550.378 304.292 550.754 304.053C550.921 303.909 551.095 303.772 551.268 303.628C551.669 303.293 552.057 302.94 552.434 302.588C553.193 301.87 553.916 301.111 554.603 300.321C554.914 299.957 555.237 299.592 555.53 299.203C555.547 299.179 555.565 299.155 555.589 299.119C555.649 299.036 555.715 298.952 555.781 298.862C555.924 298.665 556.073 298.462 556.211 298.258C556.844 297.355 557.436 296.429 557.986 295.478C558.524 294.545 559.026 293.594 559.498 292.626C559.749 292.105 559.988 291.579 560.221 291.047C560.245 290.987 560.269 290.939 560.287 290.903C560.287 290.891 560.299 290.88 560.305 290.862C560.413 290.592 560.526 290.323 560.628 290.054C561.423 288.015 562.08 285.928 562.618 283.806C562.893 282.711 563.138 281.611 563.353 280.505C563.455 279.973 563.55 279.44 563.64 278.902C563.688 278.615 563.73 278.334 563.772 278.047C563.784 277.981 563.819 277.706 563.843 277.551C563.855 277.467 563.867 277.383 563.867 277.348C563.885 277.192 563.903 277.037 563.921 276.881C563.951 276.612 563.981 276.343 564.011 276.068C564.07 275.524 564.118 274.986 564.166 274.441C564.268 273.24 564.333 272.038 564.375 270.836C564.453 268.51 564.423 266.178 564.286 263.852C564.214 262.65 564.118 261.448 563.987 260.252C563.927 259.672 563.855 259.092 563.783 258.518C563.766 258.38 563.76 258.308 563.76 258.285C563.754 258.243 563.742 258.195 563.736 258.159C563.7 257.89 563.658 257.621 563.616 257.352C563.586 257.172 563.556 256.993 563.526 256.819C561.602 259.63 559.444 262.291 557.095 264.748C550.378 271.781 542.052 277.162 532.901 280.433L532.895 280.427Z" fill="#E1A888" stroke="#231815" stroke-miterlimit="10"/>
<path d="M528.503 207.476C528.467 207.476 528.437 207.47 528.401 207.464C528.503 207.505 528.623 207.535 528.749 207.559C528.749 207.535 528.659 207.488 528.503 207.476Z" fill="white" stroke="#231815" stroke-miterlimit="10"/>
<path d="M528.371 207.458C528.371 207.458 528.384 207.458 528.391 207.465C528.391 207.465 528.397 207.465 528.404 207.465C528.397 207.465 528.384 207.465 528.371 207.452V207.458Z" fill="white" stroke="#231815" stroke-miterlimit="10"/>
<path d="M617.664 202.453C617.664 202.453 617.628 202.429 617.616 202.417C617.73 202.519 618.066 202.74 617.664 202.453Z" fill="white" stroke="#231815" stroke-miterlimit="10"/>
<path d="M418.739 193.136C434.811 181.446 453.351 173.78 471.968 167.149C475.77 165.791 479.583 164.476 483.39 163.136C487.861 161.564 492.552 160.685 497.142 159.489C508.05 156.655 518.874 153.503 529.806 150.765C554.203 144.653 579.58 140.354 604.736 143.727C628.237 146.878 651.481 156.977 665.61 176.746C666.07 177.392 666.136 178.205 665.927 178.953C666.16 179.156 666.351 179.401 666.483 179.694C668.879 184.956 671.186 190.254 673.422 195.582C675.741 201.113 677.964 206.68 680.104 212.289C682.68 209.198 684.837 205.777 686.6 202.166C694.257 186.487 693.844 167.597 689.033 151.153C684.036 134.069 674.312 118.451 661.504 106.139C647.71 92.8817 630.431 84.1455 611.944 79.5352C591.952 74.5422 571.111 74.3209 550.736 76.7606C529.202 79.3378 508.062 84.857 487.269 90.8785C468.37 96.3499 449.621 102.664 431.918 111.317C414.693 119.73 398.31 130.344 384.911 144.157C380.141 149.072 375.73 154.382 371.78 160.015C371.953 161.552 371.307 163.053 369.676 163.501C369.586 163.525 369.49 163.543 369.395 163.561C364.028 171.825 359.653 180.729 356.634 190.093C351.154 207.081 350.377 225.349 355.81 242.456C360.83 258.255 370.793 272.504 383.966 282.586C382.801 274.872 381.629 267.158 380.464 259.445C380.302 258.398 380.506 257.423 381.097 256.712C381.181 254.428 381.366 252.149 381.665 249.883C383.285 237.565 387.983 225.707 395.454 215.757C402.01 207.027 409.923 199.552 418.739 193.142V193.136Z" fill="#BE3232" stroke="#231815" stroke-miterlimit="10"/>
<path d="M389.781 131.379C405.315 118.116 423.263 108.118 442.024 100.207C461.264 92.0924 481.322 86.0829 501.475 80.7251C523.542 74.8651 546.098 70.1232 568.983 69.3578C589.746 68.6582 611 71.3789 630.341 79.2123C634.985 81.0958 639.479 83.2665 643.806 85.7181C643.418 84.002 642.886 82.3157 642.246 80.6832C637.453 68.425 626.294 60.0894 615.53 53.3443C603.852 46.0193 591.928 38.9872 579.837 32.3618C556.402 19.5175 531.12 8.36551 504.165 6.26665C489.773 5.14846 475.351 6.72111 461.323 9.98001C448.019 13.0655 434.798 17.3529 422.295 22.8721C410.981 27.8651 400.038 34.1258 391.072 42.7365C381.928 51.5146 375.515 62.535 371.672 74.578C363.681 99.6267 366.591 126.069 370.494 151.662C376.208 144.241 382.711 137.424 389.793 131.385L389.781 131.379Z" fill="#BE3232" stroke="#231815" stroke-miterlimit="10"/>
<path d="M581.057 249.847C581.284 251.432 581.541 253.01 581.84 254.583C582.443 257.782 583.196 260.951 584.099 264.079C584.978 267.122 585.988 270.118 587.141 273.066C587.302 273.485 587.47 273.909 587.643 274.328C587.709 274.495 587.781 274.663 587.846 274.83C587.84 274.812 587.936 275.051 588.002 275.207C588.044 275.309 588.109 275.458 588.121 275.494C588.211 275.703 588.301 275.906 588.39 276.116C588.534 276.445 588.683 276.78 588.827 277.108C589.239 278.029 589.675 278.944 590.112 279.853C596.626 268.94 608.496 261.639 621.059 260.186C625.883 259.624 630.73 260.096 635.356 261.412C635.428 260.043 635.487 258.673 635.505 257.304C635.559 254.015 635.451 250.72 635.194 247.443C635.165 247.037 635.123 246.63 635.081 246.224C631.638 247.988 628.034 249.465 624.341 250.619C610.367 254.984 594.857 254.78 581.051 249.847H581.057Z" fill="#E1A888" stroke="#231815" stroke-miterlimit="10"/>
<path d="M627.956 217.103C627.992 217.187 628.034 217.288 628.034 217.318C628.028 217.258 627.992 217.181 627.956 217.103Z" fill="white" stroke="#231815" stroke-miterlimit="10"/>
<path d="M613.529 200.043C613.092 199.845 613.379 199.977 613.541 200.049C613.541 200.049 613.529 200.049 613.529 200.043Z" fill="white" stroke="#231815" stroke-miterlimit="10"/>
<path d="M613.559 200.055C613.601 200.073 613.632 200.085 613.632 200.085C613.632 200.085 613.601 200.073 613.559 200.055Z" fill="white" stroke="#231815" stroke-miterlimit="10"/>
<path d="M533.255 208.755C533.087 208.677 533.087 208.683 533.147 208.713C533.201 208.737 533.255 208.761 533.315 208.786C533.291 208.774 533.273 208.767 533.255 208.755Z" fill="white" stroke="#231815" stroke-miterlimit="10"/>
<path d="M581.583 243.706C585.342 245.129 589.227 246.188 593.189 246.881C593.686 246.965 594.182 247.049 594.678 247.121C594.905 247.156 595.132 247.192 595.359 247.222C595.359 247.222 595.371 247.222 595.377 247.222C596.25 247.33 597.122 247.425 598.001 247.503C599.794 247.659 601.593 247.742 603.392 247.748C605.149 247.76 606.906 247.701 608.663 247.569C609.584 247.503 610.498 247.414 611.413 247.312C611.664 247.282 611.909 247.252 612.16 247.222C612.196 247.222 612.214 247.216 612.243 247.21C612.656 247.156 613.068 247.091 613.481 247.025C616.995 246.463 620.461 245.626 623.838 244.507C624.711 244.22 625.578 243.909 626.438 243.581C626.827 243.431 627.221 243.282 627.61 243.126C627.747 243.072 627.891 243.012 628.028 242.953C628.028 242.953 628.094 242.923 628.255 242.857C628.267 242.857 628.279 242.845 628.285 242.845C629.976 242.11 631.632 241.314 633.258 240.441C633.61 240.25 633.975 240.136 634.34 240.088C634.232 239.401 634.118 238.719 633.999 238.037C632.845 231.579 631.094 225.223 628.745 219.094C628.506 218.466 628.255 217.844 627.998 217.222C627.95 217.109 627.926 217.049 627.92 217.019C627.897 216.977 627.879 216.929 627.861 216.899C627.723 216.588 627.586 216.278 627.448 215.967C626.887 214.729 626.283 213.509 625.631 212.313C624.998 211.159 624.322 210.029 623.593 208.935C623.199 208.343 622.781 207.774 622.362 207.2C622.266 207.081 622.177 206.961 622.081 206.848C621.896 206.62 621.705 206.393 621.513 206.166C620.659 205.167 619.738 204.223 618.752 203.35C618.477 203.11 618.202 202.877 617.921 202.65C617.868 202.608 617.682 202.488 617.617 202.417C617.132 202.07 616.648 201.735 616.14 201.418C615.555 201.053 614.951 200.719 614.329 200.414C614.072 200.288 613.815 200.168 613.558 200.049C613.451 200.007 613.265 199.935 613.23 199.917C612.022 199.457 610.773 199.122 609.5 198.913C609.446 198.907 609.392 198.889 609.339 198.871C609.231 198.859 609.106 198.853 609.034 198.847C608.753 198.817 608.472 198.793 608.185 198.775C607.552 198.733 606.912 198.727 606.273 198.745C605.639 198.763 605.006 198.817 604.378 198.877C604.282 198.889 604.193 198.901 604.103 198.913C603.786 198.961 603.469 199.02 603.153 199.086C601.886 199.343 600.636 199.696 599.417 200.139C599.1 200.252 598.784 200.384 598.467 200.503C598.347 200.557 598.234 200.605 598.114 200.659C597.552 200.916 596.997 201.191 596.447 201.484C595.281 202.112 594.164 202.811 593.094 203.589C593.046 203.625 592.568 203.924 592.562 203.983C592.562 203.965 593.118 203.541 592.646 203.924C592.418 204.109 592.185 204.294 591.964 204.48C591.456 204.904 590.966 205.347 590.494 205.807C589.573 206.698 588.737 207.655 587.918 208.642C587.894 208.671 587.87 208.701 587.846 208.737C587.757 208.857 587.673 208.97 587.589 209.09C587.374 209.389 587.165 209.688 586.962 209.993C586.597 210.543 586.244 211.099 585.904 211.667C585.151 212.941 584.481 214.256 583.884 215.608C583.848 215.692 583.537 216.457 583.8 215.799C583.74 215.955 583.674 216.104 583.615 216.254C583.495 216.559 583.376 216.864 583.262 217.174C583.005 217.868 582.766 218.568 582.545 219.273C582.108 220.655 581.744 222.054 581.439 223.465C581.272 224.236 581.122 225.014 580.985 225.791C580.931 226.12 580.877 226.449 580.823 226.778C580.8 226.945 580.776 227.107 580.752 227.274C580.752 227.274 580.71 227.573 580.692 227.705C580.68 227.818 580.662 227.938 580.656 227.968C580.632 228.177 580.608 228.38 580.584 228.59C580.543 228.966 580.507 229.337 580.471 229.714C580.411 230.378 580.357 231.047 580.315 231.717C580.22 233.218 580.172 234.725 580.166 236.232C580.154 238.683 580.25 241.135 580.429 243.587C580.823 243.527 581.224 243.557 581.6 243.694L581.583 243.706Z" fill="#E1A888" stroke="#231815" stroke-miterlimit="10"/>
<path d="M504.476 277.587C504.476 277.587 504.476 277.587 504.488 277.587C504.619 277.599 504.751 277.623 504.882 277.635C505.588 277.718 506.293 277.79 506.998 277.85C508.367 277.963 509.736 278.029 511.11 278.047C513.854 278.083 516.603 277.928 519.328 277.593C519.424 277.581 519.525 277.569 519.597 277.557C519.603 277.557 519.603 277.557 519.609 277.557C519.687 277.545 519.771 277.533 519.848 277.521C520.153 277.473 520.464 277.431 520.769 277.377C521.336 277.282 521.904 277.186 522.472 277.072C523.691 276.839 524.899 276.564 526.1 276.259C528.461 275.649 530.78 274.902 533.045 274.011C533.314 273.903 533.583 273.796 533.852 273.688C533.864 273.682 534.3 273.497 534.42 273.449C534.946 273.216 535.472 272.976 535.992 272.731C537.014 272.247 538.018 271.733 539.004 271.189C540.952 270.118 542.835 268.94 544.652 267.661C545.106 267.338 545.554 267.015 545.997 266.68C546.092 266.608 546.188 266.536 546.284 266.465C546.313 266.447 546.385 266.387 546.451 266.339C546.558 266.255 546.762 266.094 546.81 266.058C547.676 265.364 548.531 264.653 549.356 263.911C551.017 262.434 552.589 260.868 554.077 259.211C554.794 258.416 555.488 257.603 556.163 256.766C556.319 256.574 556.468 256.383 556.617 256.192C556.57 256.251 556.839 255.911 556.94 255.773C557.251 255.36 557.556 254.948 557.855 254.523C559.146 252.711 560.329 250.828 561.405 248.89C561.494 248.735 561.596 248.591 561.71 248.46C561.267 246.851 560.777 245.255 560.239 243.67C559.851 242.528 559.432 241.398 558.996 240.274C558.871 239.951 558.739 239.622 558.608 239.299C558.578 239.227 558.446 238.91 558.387 238.767C558.381 238.749 558.369 238.731 558.369 238.725C558.309 238.582 558.243 238.438 558.183 238.295C558.076 238.043 557.962 237.798 557.855 237.547C555.924 233.218 553.611 229.056 550.945 225.133C550.288 224.171 549.613 223.22 548.919 222.287C548.758 222.072 548.591 221.857 548.429 221.641C548.459 221.683 548.22 221.372 548.112 221.229C547.754 220.774 547.383 220.32 547.013 219.871C545.53 218.077 543.965 216.349 542.321 214.699C541.502 213.874 540.653 213.078 539.805 212.283C539.793 212.283 539.793 212.283 539.781 212.283C539.643 212.235 539.518 212.14 539.392 212.068C539.159 211.942 538.926 211.811 538.693 211.685L537.205 210.866C535.932 210.166 534.665 209.443 533.35 208.809C533.278 208.779 533.194 208.743 533.153 208.719C533.141 208.713 533.123 208.701 533.111 208.701C532.907 208.624 532.704 208.546 532.495 208.474C532.053 208.319 531.605 208.175 531.15 208.05C530.666 207.912 530.176 207.798 529.68 207.697C529.411 207.643 529.058 207.631 528.748 207.571C528.748 207.595 528.646 207.589 528.389 207.475C528.299 207.464 528.21 207.458 528.12 207.446C527.899 207.422 527.672 207.404 527.451 207.386C527.002 207.35 526.548 207.332 526.094 207.326C525.078 207.308 524.062 207.344 523.052 207.434C522.753 207.458 522.46 207.493 522.161 207.523C522.143 207.523 522.131 207.523 522.113 207.523C522.096 207.523 522.084 207.523 522.06 207.529C521.593 207.595 521.133 207.679 520.673 207.768C519.645 207.966 518.623 208.217 517.613 208.51C516.627 208.797 515.653 209.126 514.696 209.497C514.439 209.598 514.188 209.7 513.931 209.802C513.877 209.825 513.842 209.837 513.812 209.849C513.77 209.867 513.734 209.891 513.698 209.903C513.256 210.101 512.82 210.304 512.389 210.513C510.512 211.428 508.713 212.504 507.01 213.718C506.765 213.898 506.52 214.077 506.275 214.262C506.245 214.286 506.209 214.316 506.167 214.352C505.773 214.663 505.39 214.986 505.008 215.321C504.261 215.973 503.544 216.66 502.862 217.378C502.504 217.754 502.157 218.143 501.816 218.538C501.667 218.711 501.523 218.885 501.38 219.058C501.32 219.13 501.26 219.208 501.201 219.285C500.842 219.722 501.32 219.136 501.314 219.136C501.189 219.064 499.623 221.641 499.497 221.845C499.175 222.395 498.87 222.957 498.589 223.525C498.445 223.812 498.308 224.093 498.176 224.386C498.129 224.494 498.081 224.601 498.033 224.709C498.015 224.745 497.973 224.846 497.943 224.924C497.896 225.044 497.836 225.193 497.836 225.199C497.794 225.307 497.752 225.42 497.71 225.534C497.597 225.827 497.489 226.126 497.388 226.425C497.208 226.951 497.041 227.477 496.885 228.01C496.545 229.194 496.264 230.395 496.037 231.609C495.929 232.183 495.845 232.757 495.756 233.337C495.738 233.493 495.72 233.642 495.702 233.798C495.672 234.079 495.642 234.36 495.612 234.641C495.373 237.123 495.32 239.622 495.385 242.116C495.451 244.591 495.636 247.061 495.887 249.524C496.013 250.786 496.162 252.042 496.318 253.303C496.401 253.961 496.485 254.619 496.569 255.283C496.587 255.408 496.599 255.534 496.616 255.659C496.616 255.701 496.64 255.845 496.652 255.94C496.652 255.964 496.652 255.982 496.658 255.988C496.682 256.156 496.706 256.323 496.724 256.485C497.429 261.573 498.29 266.644 499.515 271.631C500.017 273.664 500.579 275.679 501.219 277.67C501.858 277.395 502.605 277.312 503.31 277.425C503.699 277.485 504.087 277.545 504.476 277.599V277.587Z" fill="#E1A888" stroke="#231815" stroke-miterlimit="10"/>
<path d="M533.453 208.833C533.417 208.833 533.363 208.809 533.314 208.785C533.326 208.785 533.338 208.797 533.345 208.803C533.387 208.821 533.423 208.833 533.447 208.833H533.453Z" fill="white" stroke="#231815" stroke-miterlimit="10"/>
<path d="M431.852 617.027C442.377 639.277 450.643 662.681 458.945 685.829C467.534 709.783 475.554 733.947 482.691 758.38C496.103 804.297 506.933 851.62 509.646 899.517C510.692 898.65 511.738 897.777 512.784 896.91C531.139 881.632 549.499 866.36 567.854 851.082C566.593 827.307 562.146 803.765 556.534 780.666C545.501 735.244 529.776 690.965 512.312 647.655C503.831 626.624 495.35 605.307 484.681 585.275C472.578 562.546 456.226 542.945 434.59 528.768C417.125 536.523 399.942 544.823 383.1 553.798C404.461 570.571 420.251 592.493 431.858 617.027H431.852Z" fill="#2C2926" stroke="#231815" stroke-miterlimit="10"/>
<path d="M659.436 526.447C659.006 525.933 658.558 525.437 658.085 524.958C657.571 524.432 657.027 523.93 656.466 523.452C656.304 523.314 656.137 523.165 655.964 523.027C655.946 523.015 655.898 522.985 655.808 522.919C655.641 522.8 655.479 522.68 655.318 522.567C654.254 521.819 653.125 521.167 651.953 520.605C637.609 526.77 621.824 529.467 606.249 530.101C587.81 530.848 569.097 529.084 550.868 525.825C550.73 526.25 550.605 526.681 550.497 527.111C550.312 527.829 550.163 528.552 550.043 529.282C550.025 529.383 550.001 529.503 549.983 529.623C549.983 529.664 549.983 529.706 549.983 529.742C549.942 530.125 549.906 530.514 549.876 530.896C549.774 532.373 549.792 533.862 549.924 535.339C549.942 535.548 549.965 535.764 549.989 535.973C549.995 536.027 550.061 536.726 550.013 536.212C549.965 535.698 550.043 536.392 550.049 536.451C550.079 536.625 550.103 536.804 550.133 536.978C550.252 537.683 550.396 538.383 550.563 539.082C550.916 540.559 551.37 542.012 551.914 543.43C552.004 543.669 552.099 543.902 552.195 544.141C552.213 544.189 552.225 544.219 552.237 544.249C552.362 544.548 552.506 544.847 552.637 545.134C552.948 545.798 553.277 546.455 553.623 547.101C554.358 548.464 555.171 549.78 556.062 551.048C556.295 551.382 556.534 551.705 556.773 552.034C556.863 552.154 556.952 552.267 557.042 552.387C556.976 552.303 556.91 552.22 556.845 552.13C556.851 552.196 557.066 552.405 557.12 552.477C557.604 553.081 558.106 553.667 558.62 554.241C559.648 555.383 560.748 556.465 561.901 557.47C562.2 557.733 562.511 557.99 562.816 558.241C563.001 558.391 563.186 558.54 563.371 558.69C563.383 558.696 563.383 558.702 563.395 558.708C564.041 559.198 564.692 559.67 565.356 560.131C566.778 561.105 568.242 562.008 569.755 562.839C571.261 563.671 572.809 564.436 574.387 565.136C574.667 565.261 574.948 565.381 575.229 565.506C575.241 565.506 575.247 565.512 575.259 565.518C575.642 565.674 576.024 565.829 576.407 565.979C577.178 566.284 577.949 566.571 578.726 566.846C585.33 569.196 592.209 570.661 599.113 571.815C600.929 572.12 602.746 572.401 604.569 572.67C605.125 572.754 605.687 572.831 606.249 572.909C606.291 572.909 606.733 572.975 606.799 572.987C606.912 572.999 607.02 573.017 607.133 573.029C608.066 573.148 609.004 573.268 609.942 573.37C613.869 573.818 617.814 574.117 621.765 574.159C623.725 574.177 625.691 574.135 627.652 574.009C628.674 573.944 629.696 573.86 630.718 573.746C631.118 573.704 631.519 573.657 631.919 573.603C632.057 573.585 632.379 573.537 632.415 573.531C632.6 573.501 632.786 573.477 632.965 573.447C636.438 572.897 639.868 572.054 643.155 570.804C643.562 570.649 643.962 570.487 644.363 570.326C644.363 570.326 644.369 570.326 644.381 570.32C644.548 570.242 644.715 570.171 644.883 570.099C645.552 569.8 646.216 569.483 646.873 569.148C648.248 568.448 649.586 567.677 650.883 566.84C651.559 566.403 652.222 565.943 652.874 565.465C653.023 565.357 653.166 565.249 653.316 565.136C653.328 565.124 653.346 565.112 653.364 565.1C653.645 564.908 653.908 564.663 654.165 564.448C655.336 563.473 656.448 562.439 657.494 561.333C658.038 560.759 658.564 560.167 659.066 559.551C659.155 559.437 659.245 559.329 659.335 559.216C659.358 559.186 659.382 559.156 659.406 559.126C659.484 558.863 659.884 558.492 660.034 558.277C660.9 557.051 661.689 555.772 662.371 554.432C662.568 554.049 662.753 553.667 662.933 553.272C662.992 553.14 663.046 553.009 663.106 552.877C663.112 552.859 663.118 552.853 663.124 552.841C663.124 552.83 663.136 552.818 663.142 552.8C663.405 552.13 663.656 551.454 663.877 550.773C664.325 549.361 664.636 547.926 664.881 546.473C664.881 546.449 664.887 546.437 664.893 546.413C664.917 546.222 664.941 546.025 664.959 545.833C664.995 545.493 665.024 545.146 665.042 544.805C665.09 544.117 665.108 543.436 665.108 542.748C665.108 541.994 665.072 541.241 665.012 540.488C664.983 540.147 664.953 539.806 664.911 539.465C664.911 539.453 664.911 539.429 664.911 539.405C664.911 539.369 664.899 539.322 664.887 539.244C664.875 539.178 664.869 539.106 664.857 539.041C664.636 537.629 664.313 536.23 663.895 534.861C663.674 534.149 663.429 533.444 663.154 532.75C663.106 532.63 663.058 532.511 663.01 532.397C663.004 532.379 662.992 532.367 662.986 532.343C662.843 532.038 662.705 531.727 662.562 531.422C661.946 530.149 661.235 528.929 660.428 527.763C660.213 527.452 659.998 527.039 659.717 526.788C659.765 526.83 660.147 527.326 659.813 526.92C659.687 526.764 659.562 526.609 659.43 526.453L659.436 526.447Z" fill="#F5B997" stroke="#231815" stroke-miterlimit="10"/>
<path d="M664.869 539.058C664.893 539.214 664.905 539.322 664.911 539.382C664.911 539.274 664.899 539.118 664.869 539.058Z" fill="white" stroke="#231815" stroke-miterlimit="10"/>
<path d="M547.874 519.194C548.77 518.799 549.888 518.859 550.725 519.302C551 519.445 551.215 519.637 551.406 519.84C553.976 520.294 556.546 520.713 559.116 521.096C579.497 524.145 600.679 525.724 621.173 522.818C640.855 520.025 659.747 512.694 674.319 498.863C688.256 485.63 697.688 468.164 703.079 449.836C709.647 427.496 710.472 403.954 709.408 380.831C708.356 358.115 705.756 335.452 701.782 313.064C697.789 290.586 692.386 268.354 685.621 246.546C678.867 224.781 670.762 203.445 661.319 182.708C660.978 181.96 660.871 181.153 661.044 180.418C660.823 180.226 660.62 180.005 660.446 179.76C658.934 177.643 657.273 175.64 655.492 173.744C639.611 156.816 616.027 149.76 593.411 148.66C569.259 147.488 545.459 152.708 522.269 158.891C511.995 161.63 501.781 164.613 491.429 167.071C483.474 168.961 475.716 172.064 468.048 174.898C450.219 181.482 432.432 189.477 417.508 201.544C409.278 208.199 401.7 216.056 396.297 225.211C390.284 235.394 387.081 247.079 387.021 258.9C387.021 259.51 386.865 260.025 386.608 260.443C387.051 263.349 387.487 266.255 387.929 269.161C389.908 282.233 391.886 295.298 393.864 308.37C395.251 308.639 396.625 308.974 397.976 309.369C405.459 311.575 412.44 315.761 417.568 321.675C418.662 322.936 418.728 324.641 417.568 325.902C416.528 327.032 414.37 327.086 413.342 325.902C412.207 324.593 410.988 323.367 409.679 322.237C409.296 321.908 408.908 321.591 408.519 321.274C408.495 321.256 408.483 321.244 408.465 321.226C408.459 321.226 408.453 321.214 408.442 321.208C408.268 321.083 408.095 320.951 407.922 320.826C407.228 320.317 406.511 319.833 405.782 319.372C404.264 318.416 402.674 317.561 401.036 316.819C400.791 316.706 400.54 316.586 400.289 316.49C400.235 316.472 400.188 316.454 400.164 316.442C399.763 316.281 399.357 316.126 398.95 315.976C398.138 315.677 397.313 315.408 396.488 315.157C394.755 314.643 392.992 314.236 391.204 313.949C390.93 313.901 390.625 313.823 390.344 313.817C390.35 313.817 390.356 313.817 390.362 313.817C390.326 313.817 390.302 313.817 390.278 313.811C389.848 313.758 389.417 313.716 388.981 313.674C388.115 313.596 387.248 313.542 386.381 313.518C384.57 313.465 382.759 313.53 380.96 313.71C380.673 313.74 380.387 313.776 380.1 313.805C380.076 313.805 380.064 313.805 380.046 313.805C380.046 313.805 380.04 313.805 380.034 313.805C379.604 313.871 379.173 313.937 378.749 314.009C377.894 314.158 377.046 314.338 376.203 314.547C374.511 314.96 372.856 315.486 371.236 316.126C370.991 316.221 370.746 316.317 370.501 316.424C370.429 316.454 370.369 316.484 370.334 316.502C369.933 316.682 369.539 316.861 369.144 317.052C368.361 317.429 367.584 317.836 366.825 318.26C365.241 319.151 363.717 320.144 362.265 321.22C362.139 321.31 361.339 321.878 362.002 321.412C361.823 321.537 361.655 321.681 361.488 321.818C361.147 322.093 360.813 322.368 360.484 322.655C359.82 323.223 359.175 323.809 358.541 324.413C357.227 325.675 355.983 327.008 354.824 328.414C354.639 328.641 354.453 328.868 354.274 329.095C354.25 329.125 354.202 329.185 354.154 329.245C353.897 329.568 353.658 329.903 353.419 330.237C352.905 330.949 352.409 331.673 351.937 332.408C350.945 333.945 350.042 335.535 349.236 337.174C349.008 337.634 348.787 338.095 348.578 338.561C348.488 338.758 348.399 338.962 348.309 339.165C348.297 339.195 348.273 339.243 348.249 339.303C347.891 340.08 347.61 340.905 347.323 341.712C346.737 343.369 346.247 345.049 345.853 346.759C345.638 347.686 345.452 348.619 345.297 349.552C345.261 349.779 345.225 350.012 345.189 350.239C345.189 350.275 345.171 350.347 345.159 350.431C345.088 350.891 345.046 351.358 345.004 351.818C344.807 353.797 344.735 355.788 344.783 357.78C344.807 358.814 344.861 359.849 344.95 360.877C344.992 361.356 345.04 361.828 345.094 362.3C345.118 362.539 345.147 362.773 345.177 363.012C345.177 363.036 345.177 363.048 345.183 363.066C345.183 363.096 345.195 363.125 345.201 363.161C345.506 365.135 345.883 367.084 346.391 369.015C346.893 370.947 347.508 372.854 348.219 374.72C348.399 375.186 348.584 375.653 348.775 376.113C348.823 376.233 348.895 376.4 348.919 376.448C349.014 376.669 349.11 376.885 349.212 377.106C349.606 377.979 350.024 378.846 350.467 379.701C351.381 381.483 352.391 383.211 353.491 384.885C354.065 385.752 354.656 386.608 355.278 387.445C355.398 387.606 355.517 387.768 355.637 387.923C355.661 387.953 355.696 388.001 355.738 388.049C356.019 388.401 356.3 388.754 356.587 389.101C359.109 392.157 361.96 394.919 365.074 397.365C365.217 397.473 365.48 397.676 365.534 397.718C365.726 397.861 365.923 398.005 366.114 398.148C366.502 398.429 366.897 398.71 367.291 398.979C368.086 399.524 368.893 400.05 369.712 400.552C371.421 401.598 373.185 402.549 375.001 403.404C375.509 403.644 376.023 403.871 376.531 404.098C376.567 404.11 376.591 404.122 376.615 404.134C376.639 404.146 376.669 404.152 376.705 404.17C376.926 404.259 377.147 404.349 377.374 404.439C378.265 404.792 379.167 405.12 380.076 405.425C381.964 406.059 383.895 406.579 385.843 406.98C386.841 407.189 387.881 407.435 388.903 407.512C388.12 407.453 388.921 407.512 389.059 407.53C389.298 407.56 389.531 407.584 389.77 407.614C390.242 407.662 390.72 407.71 391.199 407.746C393.105 407.889 395.03 407.919 396.936 407.823C397.898 407.775 398.861 407.692 399.817 407.584C399.847 407.584 399.907 407.572 399.966 407.572C400.164 407.548 400.367 407.512 400.564 407.482C401.006 407.417 401.443 407.339 401.879 407.261C403.702 406.92 405.507 406.466 407.276 405.904C408.196 405.611 409.105 405.288 410.007 404.935C410.217 404.851 410.42 404.774 410.629 404.69C410.689 404.666 410.874 404.6 410.982 404.564C410.928 404.582 410.856 404.606 410.737 404.648C411.155 404.505 411.555 404.289 411.956 404.104C413.635 403.321 415.267 402.436 416.839 401.449C417.658 400.941 418.453 400.403 419.236 399.84C419.57 399.601 419.905 399.356 420.228 399.099C420.299 399.045 420.365 398.985 420.395 398.961C420.568 398.824 420.742 398.68 420.909 398.543C422.332 397.371 423.676 396.103 424.931 394.752C425.583 394.052 426.21 393.323 426.808 392.581C426.832 392.551 426.892 392.48 426.952 392.402C427.065 392.258 427.173 392.109 427.286 391.959C427.549 391.606 427.806 391.242 428.057 390.883C429.103 389.358 430.036 387.762 430.854 386.105C431.596 384.61 433.592 384.317 434.943 385.035C436.437 385.824 436.706 387.726 436.012 389.125C435.176 390.817 434.225 392.444 433.15 393.992C428.667 400.462 422.457 405.689 415.351 409.079C416.175 413.396 417.239 417.666 418.578 421.857C424.292 439.743 434.674 455.941 447.625 469.443C461.563 483.974 478.418 495.216 496.707 503.509C512.987 510.894 530.314 515.869 547.88 519.188L547.874 519.194ZM583.884 204.175C590.901 195.54 603.5 190.141 614.401 194.003C626.11 198.153 632.063 210.095 635.81 221.109C640.281 234.24 642.152 248.316 641.303 262.159C641.273 262.632 641.153 263.062 640.962 263.451C646.772 266.058 652.007 270.005 656.089 274.86C660.405 279.991 663.632 286.084 665.007 292.679C666.387 299.329 666.059 306.277 664.176 312.795C662.293 319.307 658.928 325.364 654.386 330.393C649.73 335.541 643.789 339.356 637.233 341.599C624.036 346.107 608.443 343.985 597.134 335.751C595.778 334.764 595.24 333.215 596.065 331.661C596.77 330.333 598.886 329.663 600.153 330.59C601.438 331.523 602.771 332.384 604.163 333.156C604.886 333.556 605.627 333.939 606.38 334.298C606.721 334.459 607.062 334.615 607.409 334.77C607.432 334.782 607.48 334.8 607.528 334.824C607.66 334.89 607.809 334.937 607.946 334.997C609.453 335.601 610.995 336.121 612.566 336.546C614.138 336.971 615.728 337.305 617.336 337.551C617.366 337.551 617.426 337.563 617.485 337.574C617.695 337.61 617.904 337.628 618.113 337.652C618.489 337.694 618.866 337.736 619.242 337.766C619.996 337.832 620.749 337.879 621.508 337.903C623.098 337.957 624.687 337.927 626.271 337.802C626.725 337.766 627.174 337.724 627.628 337.676C627.849 337.652 628.07 337.622 628.285 337.598C628.285 337.598 628.285 337.598 628.291 337.598C629.074 337.473 629.857 337.347 630.634 337.192C632.188 336.875 633.718 336.474 635.224 335.978C636.013 335.721 636.79 335.434 637.561 335.129C637.591 335.117 637.645 335.093 637.711 335.069C637.842 335.021 637.974 334.955 638.099 334.902C638.446 334.752 638.787 334.591 639.127 334.429C640.615 333.718 642.062 332.904 643.442 332.001C644.106 331.565 644.745 331.105 645.385 330.638C645.391 330.638 645.403 330.626 645.409 330.62C645.54 330.519 645.672 330.411 645.797 330.309C646.078 330.082 646.353 329.855 646.628 329.622C647.776 328.641 648.857 327.594 649.879 326.482C650.417 325.902 650.931 325.304 651.433 324.694C651.571 324.527 651.702 324.359 651.84 324.192C651.87 324.156 651.882 324.138 651.906 324.114C652.103 323.857 652.294 323.594 652.479 323.337C653.382 322.081 654.219 320.778 654.978 319.432C655.701 318.141 656.502 316.771 656.986 315.366C656.723 316.126 656.986 315.348 657.058 315.181C657.123 315.013 657.189 314.846 657.255 314.678C657.386 314.344 657.512 314.003 657.631 313.668C657.876 312.992 658.098 312.305 658.307 311.617C658.761 310.104 659.132 308.561 659.406 307.007C659.484 306.582 659.544 306.157 659.61 305.733C659.61 305.709 659.622 305.679 659.628 305.649C659.646 305.512 659.651 305.38 659.669 305.249C659.747 304.537 659.807 303.819 659.849 303.108C659.932 301.607 659.932 300.1 659.837 298.593C659.789 297.858 659.807 297.003 659.622 296.291C659.61 296.249 659.604 296.207 659.598 296.183C659.574 296.04 659.556 295.902 659.532 295.759C659.466 295.37 659.395 294.982 659.323 294.593C659.024 293.086 658.624 291.597 658.133 290.144C657.924 289.522 657.733 288.828 657.446 288.225C657.416 288.183 657.386 288.123 657.362 288.075C657.279 287.878 657.189 287.686 657.105 287.489C656.956 287.166 656.807 286.843 656.651 286.526C655.994 285.181 655.265 283.877 654.458 282.622C654.015 281.934 653.549 281.258 653.065 280.595C652.958 280.451 652.85 280.307 652.748 280.164C652.742 280.158 652.736 280.152 652.73 280.14C652.497 279.847 652.258 279.548 652.019 279.261C651.063 278.107 650.041 277.013 648.959 275.972C648.391 275.428 647.812 274.902 647.22 274.388C646.951 274.154 646.676 273.927 646.401 273.7C646.234 273.562 646.066 273.431 645.899 273.299C645.875 273.281 645.839 273.252 645.809 273.222C644.728 272.289 643.407 271.523 642.193 270.8C640.878 270.017 639.522 269.311 638.129 268.689C637.938 268.605 637.729 268.534 637.543 268.432C638.243 268.797 637.627 268.474 637.472 268.408C637.143 268.276 636.808 268.151 636.48 268.025C635.816 267.78 635.141 267.553 634.459 267.35C633.001 266.907 631.513 266.554 630.007 266.303C629.762 266.261 629.517 266.225 629.272 266.19C628.722 266.106 629.361 266.19 629.433 266.208C629.074 266.1 628.632 266.112 628.262 266.082C627.514 266.01 626.761 265.968 626.014 265.95C624.514 265.915 623.014 265.974 621.52 266.13C621.305 266.154 621.095 266.178 620.88 266.202C620.868 266.202 620.862 266.202 620.85 266.202C620.844 266.202 620.838 266.202 620.826 266.202C620.474 266.255 620.121 266.309 619.768 266.369C619.063 266.495 618.364 266.638 617.671 266.799C616.141 267.164 614.634 267.619 613.158 268.169C612.788 268.306 612.423 268.45 612.058 268.599C612.035 268.611 611.999 268.623 611.969 268.635C611.807 268.701 611.646 268.779 611.491 268.851C610.839 269.144 610.194 269.454 609.554 269.783C608.215 270.471 606.918 271.236 605.669 272.074C605.012 272.51 604.378 272.97 603.745 273.443C603.745 273.443 603.745 273.443 603.739 273.449C603.721 273.467 603.703 273.479 603.673 273.503C603.559 273.592 603.452 273.682 603.338 273.772C603.033 274.017 602.729 274.274 602.436 274.531C601.27 275.536 600.171 276.606 599.137 277.742C598.611 278.322 598.097 278.92 597.607 279.53C597.523 279.632 597.415 279.751 597.344 279.865C597.35 279.853 597.356 279.847 597.362 279.835C597.332 279.877 597.308 279.919 597.29 279.943C597.075 280.23 596.865 280.517 596.662 280.81C595.802 282.036 595.019 283.309 594.319 284.637C593.937 285.36 593.578 286.102 593.25 286.855C593.244 286.873 593.232 286.897 593.22 286.915C593.16 287.047 593.112 287.196 593.058 287.328C592.915 287.692 592.777 288.063 592.646 288.434C592.084 290.012 590.644 290.903 588.97 290.521C587.476 290.18 586.358 288.32 586.884 286.843C587.01 286.49 587.141 286.138 587.279 285.791C586.651 285.552 586.101 285.133 585.802 284.541C585.067 283.088 584.368 281.623 583.699 280.134C578.068 267.583 574.829 254.063 574.279 240.31C573.777 227.723 575.743 214.238 583.914 204.187L583.884 204.175ZM576.329 407.793C576.407 409.539 574.889 410.604 573.341 410.783C566.964 411.531 560.515 411.519 554.143 410.759C542.537 409.378 531.258 405.766 521.11 399.93C511.876 394.62 501.811 386.871 499.815 375.713C499.516 374.056 500.245 372.573 501.9 372.035C503.341 371.569 505.301 372.579 505.576 374.122C505.702 374.834 505.863 375.539 506.066 376.239C506.162 376.568 506.263 376.891 506.377 377.214C506.425 377.345 506.52 377.782 506.634 378.057C506.634 378.027 506.682 378.057 506.783 378.29C506.843 378.427 506.909 378.565 506.975 378.702C507.118 379.007 507.274 379.312 507.429 379.611C507.746 380.215 508.092 380.801 508.457 381.375C508.827 381.955 509.222 382.511 509.628 383.068C509.646 383.091 509.658 383.109 509.676 383.133C509.694 383.151 509.706 383.169 509.724 383.193C509.82 383.313 509.915 383.432 510.011 383.552C510.232 383.821 510.453 384.084 510.686 384.347C511.607 385.4 512.593 386.392 513.621 387.337C514.523 388.168 515.468 388.952 516.43 389.711C516.544 389.795 516.896 390.07 516.992 390.136C517.243 390.321 517.494 390.5 517.745 390.686C518.223 391.026 518.701 391.361 519.185 391.69C521.492 393.251 523.883 394.692 526.339 396.002C527.529 396.635 528.736 397.245 529.961 397.819C530.649 398.142 531.342 398.459 532.035 398.764C532.191 398.83 532.346 398.896 532.502 398.967C532.508 398.967 532.537 398.979 532.561 398.991C532.651 399.027 532.794 399.093 532.836 399.105C532.992 399.171 533.147 399.237 533.302 399.296C535.843 400.331 538.436 401.24 541.066 402.023C543.738 402.812 546.445 403.476 549.183 403.996C550.51 404.247 551.842 404.463 553.181 404.66C553.229 404.666 553.259 404.672 553.295 404.678C553.325 404.678 553.355 404.684 553.39 404.69C553.558 404.714 553.725 404.732 553.892 404.756C554.227 404.798 554.562 404.833 554.897 404.875C555.524 404.947 556.158 405.007 556.785 405.061C562.296 405.539 567.848 405.455 573.341 404.81C575.002 404.612 576.264 406.334 576.329 407.799V407.793ZM492.093 265.293C491.142 259.947 490.401 254.541 489.869 249.142C488.853 238.803 489.009 227.543 494.585 218.394C499.318 210.627 507.572 205.137 516.227 202.674C520.638 201.418 525.228 201.023 529.77 201.657C531.982 201.968 534.061 202.614 536.1 203.511C537.516 204.133 538.861 204.946 540.218 205.688C541.371 206.321 542.674 206.884 543.684 207.727C544.628 208.522 545.513 209.419 546.386 210.292C548.113 212.02 549.762 213.832 551.316 215.721C554.544 219.638 557.437 223.818 559.893 228.261C564.722 236.973 568.045 246.576 569.48 256.443C570.908 266.279 570.765 276.481 568.183 286.12C565.715 295.328 560.897 304.184 552.99 309.775C548.543 312.92 543.212 314.631 537.791 314.894C531.91 315.181 526.1 313.65 520.805 311.174C518.492 310.074 516.287 308.765 514.219 307.246C509.694 303.933 505.923 299.915 502.851 295.227C499.898 290.718 497.663 285.749 495.924 280.654C494.214 275.649 493.019 270.483 492.093 265.281V265.293Z" fill="#F5B997" stroke="#231815" stroke-miterlimit="10"/>
<path d="M786.204 744.573C785.421 747.443 784.632 750.307 783.837 753.171C776.623 779.015 768.752 804.698 759.852 830.01C752.572 850.705 744.731 871.359 734.875 890.978C734.331 892.06 732.646 892.808 731.498 892.353C728.833 891.289 726.167 890.231 723.501 889.166C704.651 881.656 685.8 874.151 666.949 866.641C665.563 866.091 664.248 864.59 664.863 862.964C672.675 842.196 680.463 821.417 688.035 800.56C704.997 753.853 721.529 706.787 734.367 658.753C739.83 638.308 744.994 617.428 746.183 596.224C747.187 578.321 745.884 560.31 744.42 542.461C743.051 525.718 738.957 509.154 732.108 493.805C731.767 493.033 731.749 492.286 731.947 491.628C718.666 491.138 705.338 491.335 692.303 491.245C691.221 491.239 690.444 490.761 689.972 490.079C683.343 499.019 675.335 506.906 665.999 513.059C663.554 514.667 661.044 516.132 658.474 517.484C669.071 525.03 673.47 539.351 669.842 551.729C665.999 564.849 653.95 574.057 641.213 577.735C633.246 580.031 624.801 580.444 616.565 579.929C608.532 579.427 600.499 578.213 592.604 576.676C578.624 573.956 563.718 569.082 554.036 558.038C549.613 552.997 546.23 546.91 544.724 540.344C543.523 535.124 543.564 529.772 545.017 524.707C543.899 524.486 542.776 524.265 541.664 524.032C523.5 520.264 505.63 514.59 488.943 506.428C488.847 506.475 488.745 506.517 488.644 506.559C479.105 510.225 469.596 513.98 460.141 517.849C453.745 520.468 447.38 523.159 441.051 525.909C443.836 527.841 446.561 529.862 449.215 531.973C464.88 544.428 477.431 560.077 487.239 577.472C496.509 593.91 503.741 611.466 511.015 628.855C525.12 662.55 538.054 696.777 549.003 731.633C559.762 765.878 568.978 801.032 572.719 836.814C573.138 840.791 573.472 844.779 573.717 848.768C573.843 850.843 574.381 853.055 572.827 854.676C571.446 856.117 569.659 857.313 568.129 858.586L546.093 876.926C533.757 887.193 521.421 897.454 509.084 907.721C507.106 909.371 504.1 908.337 503.98 905.604C502.839 878.457 498.846 851.512 493.324 824.933C483.199 776.163 468.102 728.493 451.128 681.715C442.748 658.621 434.524 635.169 423.359 613.242C412.207 591.326 397.127 571.671 377.362 556.872C366.718 562.672 356.21 568.747 345.859 575.146C309.209 597.814 274.227 623.09 240.297 649.628C206.373 676.16 173.44 703.929 140.592 731.77C123.2 746.51 105.813 761.256 88.4267 776.002C79.4915 783.578 70.5562 791.154 61.6209 798.73C54.0961 805.11 46.1291 811.198 39.0825 818.116C27.2843 829.693 17.5302 844.343 11.5116 859.74C7.76413 869.326 6.01891 879.228 5.89937 889.471C5.60053 914.687 16.8369 939.341 34.5222 957.023C47.8265 970.328 64.2985 979.722 83.0596 982.413C99.8603 984.823 117.032 981.91 132.942 976.379C148.709 970.89 163.041 962.602 176.799 953.256C192.214 942.792 207.598 932.291 222.976 921.779C247.499 905.012 272.272 888.766 297.214 872.615C336.194 847.369 375.175 822.129 414.155 796.883C417.395 794.784 420.389 799.962 417.173 802.043C412.267 805.218 407.36 808.399 402.453 811.574C402.71 811.975 402.883 812.453 402.931 813.016C403.295 817.482 403.558 821.961 403.702 826.44C404.831 862.037 398.897 897.514 390.374 931.963C388.461 939.682 386.483 947.336 384.905 955.134C383.249 963.32 381.761 971.542 380.321 979.77C376.806 999.825 373.615 1019.94 370.513 1040.06C367.71 1058.23 364.996 1076.42 362.354 1094.61C361.374 1101.34 360.406 1108.06 359.456 1114.78C370.549 1115.41 381.654 1115.94 392.758 1116.35C406.415 1116.85 420.275 1117.57 433.926 1116.57C444.655 1115.79 455.401 1114.16 466.04 1112.6C476.953 1110.99 487.825 1109.15 498.649 1107.03C517.464 1103.34 536.111 1098.79 554.478 1093.27C583.495 1084.54 611.479 1073.1 639.336 1061.27C652.037 1055.88 664.756 1050.5 677.659 1045.61C696.182 1038.59 714.841 1032.19 732.831 1023.84C745.353 1018.03 757.677 1011.61 769.188 1003.98C770.832 1002.89 772.451 1001.78 774.047 1000.63C774.698 1000.16 775.344 999.682 775.984 999.198C776.193 999.036 776.408 998.875 776.617 998.713C776.719 998.635 776.82 998.558 776.922 998.474C777.49 998.02 778.057 997.559 778.619 997.087C779.02 983.967 779.486 970.848 780.012 957.735C781.375 923.543 782.97 889.34 785.648 855.22C786.24 847.709 786.909 840.205 787.662 832.712C788.84 820.974 789.156 809.171 788.971 797.379C788.69 779.739 787.321 762.153 786.216 744.549L786.204 744.573Z" fill="#BE3232" stroke="#BE3232" stroke-miterlimit="10"/>
<path d="M519.616 277.551C519.616 277.551 519.61 277.551 519.604 277.551C519.689 277.539 519.72 277.533 519.616 277.551Z" fill="white" stroke="#231815" stroke-miterlimit="10"/>
<path d="M519.46 277.575C519.508 277.569 519.556 277.563 519.604 277.557C519.568 277.557 519.526 277.569 519.466 277.575H519.46Z" fill="white" stroke="#231815" stroke-miterlimit="10"/>
<path d="M807.594 525.766C805.969 518.937 803.273 512.563 800.058 506.344C780.603 496.471 759.314 493.069 737.738 491.903C745.071 508.706 749.195 526.459 750.564 544.739C752.076 564.998 753.57 585.407 751.389 605.678C749.183 626.164 744.007 646.345 738.55 666.174C731.898 690.325 724.284 714.208 716.311 737.953C702.313 779.661 687.031 820.915 671.551 862.09C673.212 862.754 674.874 863.412 676.535 864.076C694.633 871.287 712.731 878.493 730.834 885.704C741.348 864.363 749.56 841.867 757.222 819.378C767.723 788.535 777.041 757.22 785.193 725.611C785.217 725.175 785.319 724.798 785.492 724.475C790.501 704.987 795.067 685.386 799.185 665.725C803.584 644.719 807.57 623.533 809.788 602.173C811.682 583.912 813.027 565.417 811.007 547.101C810.224 539.973 809.274 532.75 807.612 525.772L807.594 525.766Z" fill="#2C2926" stroke="#231815" stroke-miterlimit="10"/>
<path d="M813.535 524.947C811.898 517.771 809.107 511.008 805.796 504.466C805.915 503.462 805.509 502.427 804.319 501.805C770.168 483.914 730.781 485.499 693.313 485.284C697.06 479.615 700.305 473.611 703.013 467.398C712.139 446.434 715.409 423.556 715.737 400.827C716.084 377.184 713.837 353.427 710.508 330.04C707.232 307.019 702.481 284.2 696.301 261.783C692.195 246.869 687.437 232.136 682.082 217.629C682.853 217.629 683.612 217.372 684.12 216.768C696.223 202.435 700.018 183.126 697.843 164.805C695.626 146.112 687.718 128.425 676.219 113.613C668.921 104.207 660.153 96.2005 650.328 89.7245C650.351 89.5571 650.357 89.3837 650.339 89.2103C648.977 75.1043 639.886 63.7729 629.002 55.3894C623.354 51.0422 617.252 47.3588 611.156 43.6873C605.119 40.0516 599.071 36.434 592.968 32.912C568.733 18.9256 542.943 5.98564 515.031 1.59061C500.275 -0.735471 485.446 -0.41855 470.725 2.02114C456.315 4.413 442.186 8.64658 428.559 13.8788C416.402 18.5489 404.533 24.2594 394.169 32.2422C383.47 40.4822 374.965 51.0004 369.527 63.3962C357.519 90.765 359.892 121.028 364.183 149.832C364.614 152.732 365.068 155.632 365.522 158.532C361.637 164.32 358.224 170.414 355.391 176.752C347.651 194.063 344.209 213.102 347.161 231.944C350.054 250.379 359.336 267.804 372.712 280.774C375.999 283.961 379.55 286.855 383.285 289.498C383.805 289.863 384.427 289.977 385.042 289.899C385.514 293.02 385.987 296.142 386.459 299.269C386.877 302.05 387.301 304.83 387.72 307.611C383.351 307.365 378.946 307.748 374.696 308.777C367.028 310.63 359.976 314.762 354.298 320.198C348.59 325.663 344.269 332.498 341.603 339.931C338.758 347.854 338.196 356.363 339.38 364.662C340.563 372.962 343.731 381.047 348.345 388.031C353.12 395.26 359.444 401.383 366.855 405.874C374.212 410.335 382.562 413.103 391.145 413.755C397.444 414.234 403.738 413.366 409.684 411.375C413.402 430.133 422.062 447.558 433.771 462.603C446.065 478.407 461.73 491.443 479.117 501.297C480.025 501.811 480.94 502.308 481.854 502.804C443.172 517.801 404.831 534.221 368.672 554.641C330.701 576.084 294.649 600.942 259.835 627.151C224.787 653.533 190.946 681.47 157.411 709.741C122.016 739.58 86.771 769.591 51.4662 799.531C44.5391 805.404 37.3012 811.006 31.1571 817.722C25.527 823.875 20.4885 830.62 16.0717 837.688C11.2903 845.354 7.2201 853.522 4.29148 862.078C1.67962 869.715 0.520128 877.333 0.0957763 885.357C-0.93223 904.869 4.36917 924.524 14.4819 941.213C23.985 956.892 37.9109 970.717 54.1737 979.279C69.8627 987.537 87.7213 990.497 105.299 988.739C122.417 987.029 138.9 981.456 154.237 973.796C170.314 965.766 184.856 955.008 199.66 944.914C222.623 929.266 245.383 913.294 268.704 898.19C308.516 872.405 348.333 846.621 388.144 820.837C391.115 818.911 394.091 816.986 397.062 815.061C399.643 849.97 395.035 884.897 387.295 918.915C384.994 929.027 382.167 939.007 380.016 949.148C378.396 956.76 376.974 964.414 375.599 972.074C372.073 991.729 368.911 1011.46 365.839 1031.19C362.916 1049.96 360.095 1068.75 357.352 1087.54C355.947 1097.14 354.543 1106.75 353.198 1116.37C353.18 1116.51 353.156 1116.66 353.138 1116.81C352.857 1118.79 353.897 1120.46 356.019 1120.59C371.702 1121.54 387.403 1122.26 403.11 1122.7C412.882 1122.96 422.714 1123.25 432.48 1122.68C439.413 1122.28 446.334 1121.25 453.213 1120.37C461.868 1119.26 470.504 1118.01 479.111 1116.61C507.303 1112.01 535.209 1105.64 562.469 1097.08C583.991 1090.33 605.018 1082.17 625.811 1073.44C644.393 1065.65 662.831 1057.5 681.718 1050.46C695.841 1045.19 710.042 1040.25 723.914 1034.32C735.515 1029.36 746.942 1023.94 757.957 1017.78C764.442 1014.15 770.813 1010.28 776.85 1005.94C779.079 1004.33 781.763 1002.71 783.616 1000.64C784.781 999.341 784.548 997.452 784.596 995.807C784.656 993.84 784.721 991.873 784.781 989.905C784.937 985.128 785.104 980.35 785.271 975.572C785.714 963.344 786.198 951.121 786.736 938.899C787.967 910.998 789.395 883.091 791.583 855.244C792.736 840.498 794.565 825.8 794.882 810.995C795.282 791.997 794.003 773.024 792.754 754.086C792.139 744.704 791.535 735.322 791.129 725.928C791.129 725.928 791.129 725.922 791.129 725.916C795.557 708.802 799.675 691.599 803.411 674.324C808.18 652.259 812.454 630.021 815.113 607.591C817.349 588.749 818.932 569.549 817.277 550.599C816.53 542.054 815.412 533.318 813.506 524.953L813.535 524.947ZM371.666 74.5781C375.509 62.5351 381.922 51.5146 391.067 42.7365C400.038 34.1318 410.981 27.8651 422.289 22.8721C434.793 17.3529 448.014 13.0715 461.318 9.98004C475.345 6.72114 489.767 5.14849 504.159 6.26669C531.115 8.36554 556.396 19.5116 579.831 32.3618C591.922 38.9873 603.846 46.0193 615.525 53.3444C626.283 60.0954 637.442 68.425 642.241 80.6833C642.88 82.3157 643.412 84.002 643.801 85.7181C639.474 83.2725 634.979 81.0959 630.335 79.2123C610.994 71.379 589.741 68.6582 568.978 69.3578C546.093 70.1292 523.536 74.8651 501.47 80.7251C481.316 86.0769 461.258 92.0924 442.019 100.207C423.258 108.118 405.315 118.116 389.776 131.379C382.699 137.418 376.197 144.241 370.477 151.656C366.574 126.069 363.669 99.6268 371.654 74.5721L371.666 74.5781ZM381.665 249.877C381.367 252.149 381.175 254.422 381.098 256.706C380.506 257.417 380.303 258.386 380.464 259.439C381.629 267.152 382.801 274.866 383.966 282.58C370.794 272.504 360.836 258.255 355.81 242.45C350.371 225.343 351.154 207.075 356.635 190.087C359.653 180.717 364.028 171.813 369.395 163.555C369.491 163.543 369.586 163.519 369.676 163.495C371.308 163.047 371.953 161.546 371.78 160.009C375.724 154.376 380.141 149.066 384.911 144.151C398.311 130.338 414.693 119.73 431.918 111.311C449.621 102.658 468.37 96.344 487.269 90.8726C508.062 84.8511 529.202 79.3319 550.737 76.7547C571.117 74.315 591.952 74.5362 611.945 79.5292C630.431 84.1455 647.71 92.8758 661.504 106.133C674.312 118.445 684.037 134.07 689.033 151.147C693.839 167.591 694.257 186.481 686.601 202.16C684.837 205.771 682.68 209.192 680.104 212.283C677.97 206.68 675.747 201.107 673.422 195.576C671.187 190.248 668.873 184.95 666.483 179.688C666.351 179.395 666.16 179.15 665.927 178.947C666.136 178.199 666.07 177.386 665.61 176.74C651.481 156.972 628.243 146.872 604.737 143.721C579.58 140.348 554.209 144.647 529.806 150.759C518.874 153.497 508.05 156.643 497.143 159.483C492.553 160.679 487.861 161.558 483.39 163.131C479.583 164.47 475.77 165.786 471.968 167.143C453.357 173.774 434.817 181.44 418.739 193.13C409.924 199.541 402.01 207.015 395.454 215.745C387.983 225.696 383.285 237.553 381.665 249.871V249.877ZM447.613 469.455C434.661 455.953 424.28 439.761 418.566 421.87C417.227 417.678 416.163 413.414 415.339 409.091C422.439 405.701 428.649 400.474 433.137 394.004C434.213 392.456 435.163 390.829 436 389.137C436.694 387.738 436.425 385.836 434.93 385.047C433.58 384.335 431.583 384.622 430.842 386.117C430.023 387.774 429.091 389.37 428.045 390.895C427.794 391.26 427.537 391.619 427.274 391.971C427.167 392.121 427.053 392.27 426.939 392.414C426.88 392.486 426.82 392.557 426.796 392.593C426.198 393.341 425.571 394.064 424.919 394.764C423.664 396.115 422.319 397.383 420.897 398.555C420.724 398.698 420.556 398.836 420.383 398.973C420.353 398.997 420.287 399.051 420.216 399.111C419.893 399.368 419.558 399.607 419.223 399.852C418.44 400.415 417.646 400.953 416.827 401.461C415.255 402.448 413.623 403.333 411.944 404.116C411.543 404.301 411.137 404.517 410.724 404.66C410.844 404.618 410.916 404.594 410.969 404.576C410.862 404.612 410.677 404.678 410.617 404.702C410.408 404.786 410.204 404.869 409.995 404.947C409.093 405.3 408.184 405.623 407.264 405.916C405.495 406.478 403.69 406.932 401.867 407.273C401.431 407.357 400.988 407.429 400.552 407.494C400.355 407.524 400.152 407.56 399.954 407.584C399.895 407.584 399.835 407.596 399.805 407.596C398.849 407.71 397.886 407.787 396.924 407.835C395.011 407.931 393.093 407.901 391.186 407.758C390.708 407.722 390.236 407.68 389.758 407.626C389.519 407.602 389.286 407.572 389.047 407.542C388.909 407.524 388.108 407.465 388.891 407.524C387.869 407.447 386.835 407.195 385.831 406.992C383.877 406.586 381.952 406.065 380.064 405.437C379.155 405.133 378.253 404.804 377.362 404.451C377.141 404.361 376.92 404.271 376.693 404.182C376.657 404.17 376.633 404.158 376.603 404.146C376.579 404.134 376.555 404.122 376.519 404.11C376.005 403.883 375.497 403.656 374.989 403.416C373.178 402.561 371.409 401.611 369.7 400.564C368.881 400.062 368.068 399.536 367.279 398.991C366.885 398.716 366.49 398.441 366.102 398.16C365.905 398.017 365.713 397.879 365.522 397.73C365.468 397.688 365.205 397.485 365.062 397.377C361.948 394.931 359.097 392.169 356.575 389.113C356.288 388.766 356.007 388.413 355.726 388.061C355.69 388.013 355.648 387.965 355.625 387.935C355.505 387.774 355.385 387.618 355.266 387.457C354.644 386.62 354.053 385.764 353.479 384.897C352.379 383.223 351.369 381.495 350.455 379.713C350.012 378.858 349.6 377.991 349.199 377.118C349.098 376.897 349.002 376.681 348.907 376.46C348.889 376.412 348.817 376.245 348.763 376.125C348.572 375.665 348.387 375.198 348.207 374.732C347.496 372.866 346.886 370.959 346.378 369.027C345.87 367.096 345.5 365.141 345.189 363.173C345.183 363.137 345.177 363.108 345.171 363.078C345.171 363.06 345.171 363.042 345.165 363.024C345.135 362.785 345.105 362.551 345.081 362.312C345.028 361.84 344.98 361.362 344.938 360.889C344.848 359.861 344.795 358.826 344.771 357.792C344.723 355.8 344.795 353.809 344.992 351.83C345.04 351.37 345.075 350.897 345.147 350.443C345.159 350.359 345.171 350.281 345.177 350.251C345.213 350.018 345.249 349.791 345.285 349.564C345.44 348.625 345.625 347.692 345.841 346.771C346.235 345.061 346.731 343.375 347.311 341.724C347.598 340.917 347.879 340.092 348.237 339.315C348.261 339.255 348.285 339.207 348.297 339.177C348.387 338.974 348.476 338.776 348.566 338.573C348.775 338.107 348.996 337.646 349.223 337.186C350.036 335.547 350.939 333.957 351.925 332.42C352.397 331.685 352.893 330.961 353.407 330.249C353.646 329.915 353.885 329.58 354.142 329.257C354.19 329.197 354.244 329.137 354.262 329.107C354.441 328.88 354.626 328.653 354.812 328.426C355.971 327.02 357.214 325.681 358.529 324.425C359.157 323.821 359.808 323.235 360.472 322.667C360.8 322.386 361.141 322.105 361.476 321.83C361.643 321.693 361.81 321.549 361.99 321.424C361.326 321.89 362.127 321.322 362.253 321.232C363.711 320.15 365.235 319.157 366.813 318.272C367.572 317.848 368.343 317.441 369.132 317.064C369.526 316.873 369.921 316.694 370.321 316.514C370.351 316.502 370.417 316.472 370.489 316.437C370.728 316.329 370.979 316.233 371.224 316.138C372.844 315.504 374.499 314.977 376.191 314.559C377.033 314.356 377.882 314.176 378.737 314.021C379.161 313.943 379.591 313.883 380.022 313.817C380.022 313.817 380.028 313.817 380.034 313.817C380.052 313.817 380.064 313.817 380.087 313.817C380.374 313.788 380.661 313.752 380.948 313.722C382.747 313.542 384.558 313.477 386.369 313.53C387.236 313.554 388.102 313.608 388.969 313.686C389.399 313.728 389.836 313.77 390.266 313.823C390.29 313.823 390.32 313.823 390.35 313.829C390.344 313.829 390.338 313.829 390.332 313.829C390.613 313.829 390.911 313.913 391.192 313.961C392.973 314.254 394.743 314.655 396.476 315.169C397.307 315.414 398.125 315.689 398.938 315.988C399.345 316.138 399.745 316.293 400.152 316.454C400.175 316.466 400.229 316.484 400.277 316.502C400.528 316.598 400.779 316.724 401.024 316.831C402.662 317.573 404.246 318.422 405.77 319.384C406.499 319.845 407.21 320.329 407.909 320.838C408.083 320.963 408.256 321.095 408.429 321.22C408.435 321.226 408.441 321.232 408.453 321.238C408.471 321.25 408.483 321.268 408.507 321.286C408.896 321.603 409.29 321.92 409.667 322.249C410.975 323.379 412.195 324.611 413.33 325.914C414.358 327.098 416.516 327.044 417.556 325.914C418.715 324.653 418.65 322.948 417.556 321.687C412.428 315.767 405.447 311.581 397.964 309.381C396.613 308.98 395.239 308.651 393.852 308.382C391.874 295.31 389.895 282.245 387.917 269.173C387.475 266.267 387.038 263.361 386.596 260.455C386.853 260.037 387.003 259.522 387.009 258.912C387.068 247.091 390.272 235.406 396.285 225.223C401.688 216.068 409.266 208.211 417.496 201.556C432.42 189.489 450.207 181.494 468.036 174.91C475.704 172.076 483.468 168.973 491.417 167.083C501.763 164.625 511.983 161.642 522.257 158.903C545.447 152.72 569.247 147.5 593.399 148.672C616.009 149.772 639.599 156.822 655.479 173.756C657.261 175.652 658.916 177.655 660.434 179.772C660.608 180.017 660.811 180.238 661.032 180.43C660.859 181.165 660.966 181.972 661.307 182.72C670.75 203.457 678.861 224.793 685.608 246.558C692.374 268.366 697.771 290.593 701.77 313.076C705.744 335.464 708.35 358.121 709.396 380.843C710.466 403.966 709.635 427.508 703.067 449.848C697.676 468.176 688.244 485.642 674.306 498.875C659.735 512.712 640.836 520.037 621.161 522.83C600.667 525.742 579.485 524.163 559.104 521.108C556.528 520.725 553.958 520.3 551.394 519.852C551.203 519.643 550.982 519.457 550.713 519.314C549.876 518.871 548.758 518.817 547.862 519.206C530.29 515.887 512.969 510.912 496.688 503.527C478.394 495.234 461.539 483.992 447.607 469.461L447.613 469.455ZM659.723 526.788C660.004 527.039 660.219 527.452 660.434 527.763C661.241 528.923 661.952 530.149 662.568 531.422C662.717 531.727 662.855 532.032 662.992 532.343C663.004 532.367 663.01 532.379 663.016 532.397C663.064 532.517 663.112 532.636 663.16 532.75C663.435 533.444 663.68 534.149 663.901 534.861C664.325 536.23 664.642 537.629 664.863 539.041C664.875 539.106 664.881 539.178 664.893 539.244C664.905 539.316 664.911 539.369 664.917 539.405C664.917 539.429 664.917 539.453 664.917 539.465C664.953 539.806 664.989 540.147 665.018 540.488C665.078 541.241 665.108 541.994 665.114 542.748C665.114 543.436 665.096 544.123 665.048 544.805C665.024 545.146 664.995 545.493 664.965 545.833C664.947 546.025 664.923 546.222 664.899 546.413C664.899 546.431 664.899 546.449 664.887 546.473C664.642 547.932 664.331 549.361 663.883 550.773C663.662 551.46 663.417 552.13 663.148 552.8C663.142 552.818 663.136 552.824 663.13 552.841C663.124 552.853 663.118 552.865 663.112 552.877C663.052 553.009 662.998 553.141 662.939 553.272C662.759 553.661 662.574 554.049 662.377 554.432C661.695 555.766 660.906 557.051 660.04 558.277C659.884 558.492 659.49 558.857 659.412 559.126C659.388 559.156 659.364 559.186 659.341 559.216C659.251 559.329 659.161 559.437 659.072 559.551C658.57 560.161 658.044 560.753 657.5 561.333C656.454 562.439 655.342 563.479 654.171 564.448C653.908 564.663 653.645 564.902 653.37 565.1C653.352 565.112 653.334 565.124 653.322 565.136C653.178 565.243 653.029 565.357 652.88 565.465C652.228 565.943 651.565 566.397 650.889 566.84C649.592 567.677 648.254 568.448 646.879 569.148C646.221 569.483 645.558 569.8 644.889 570.099C644.721 570.177 644.554 570.242 644.387 570.32C644.381 570.32 644.375 570.32 644.369 570.326C643.968 570.487 643.568 570.649 643.161 570.804C639.874 572.054 636.444 572.897 632.971 573.447C632.786 573.477 632.6 573.507 632.421 573.531C632.379 573.531 632.057 573.579 631.925 573.603C631.525 573.657 631.124 573.704 630.724 573.746C629.702 573.86 628.686 573.944 627.658 574.009C625.697 574.135 623.737 574.177 621.771 574.159C617.82 574.117 613.875 573.818 609.948 573.37C609.01 573.262 608.078 573.148 607.139 573.029C607.026 573.017 606.918 572.999 606.805 572.987C606.733 572.975 606.297 572.915 606.255 572.909C605.693 572.831 605.137 572.754 604.575 572.67C602.752 572.401 600.935 572.12 599.118 571.815C592.221 570.661 585.336 569.196 578.732 566.846C577.955 566.571 577.178 566.278 576.413 565.979C576.03 565.829 575.648 565.674 575.265 565.518C575.253 565.518 575.247 565.512 575.235 565.506C574.954 565.387 574.673 565.261 574.393 565.136C572.821 564.436 571.273 563.671 569.761 562.839C568.254 562.008 566.784 561.105 565.362 560.131C564.698 559.67 564.041 559.198 563.401 558.708C563.395 558.702 563.389 558.696 563.377 558.69C563.192 558.54 563.007 558.391 562.822 558.241C562.511 557.99 562.206 557.733 561.907 557.47C560.748 556.459 559.654 555.377 558.626 554.241C558.106 553.667 557.61 553.081 557.126 552.477C557.072 552.405 556.857 552.196 556.851 552.13C556.916 552.214 556.982 552.297 557.048 552.387C556.958 552.268 556.869 552.154 556.779 552.034C556.534 551.711 556.301 551.383 556.068 551.048C555.177 549.78 554.364 548.464 553.629 547.101C553.283 546.455 552.954 545.798 552.643 545.134C552.506 544.847 552.362 544.548 552.243 544.249C552.231 544.219 552.219 544.189 552.201 544.141C552.105 543.902 552.01 543.669 551.92 543.43C551.376 542.012 550.922 540.559 550.569 539.082C550.402 538.389 550.258 537.683 550.139 536.978C550.109 536.804 550.079 536.625 550.055 536.451C550.049 536.398 549.971 535.698 550.019 536.212C550.067 536.732 550.001 536.027 549.995 535.973C549.971 535.764 549.953 535.548 549.93 535.339C549.798 533.862 549.78 532.373 549.882 530.896C549.906 530.508 549.942 530.125 549.989 529.742C549.989 529.7 549.989 529.664 549.989 529.623C550.007 529.509 550.037 529.389 550.049 529.282C550.169 528.552 550.318 527.829 550.503 527.111C550.617 526.681 550.742 526.25 550.874 525.826C569.103 529.084 587.816 530.854 606.255 530.101C621.83 529.467 637.615 526.77 651.959 520.605C653.131 521.167 654.26 521.819 655.324 522.567C655.491 522.68 655.653 522.806 655.814 522.919C655.91 522.985 655.952 523.015 655.97 523.027C656.143 523.165 656.31 523.314 656.472 523.452C657.034 523.93 657.571 524.432 658.091 524.958C658.564 525.437 659.012 525.933 659.442 526.447C659.574 526.603 659.699 526.758 659.825 526.914C660.159 527.32 659.777 526.83 659.729 526.782L659.723 526.788ZM664.869 539.058C664.899 539.118 664.905 539.28 664.911 539.381C664.905 539.316 664.887 539.214 664.869 539.058ZM434.584 528.768C456.22 542.945 472.572 562.547 484.675 585.275C495.344 605.307 503.825 626.624 512.306 647.655C529.77 690.965 545.501 735.238 556.528 780.666C562.14 803.765 566.587 827.307 567.848 851.082C549.493 866.36 531.133 881.632 512.778 896.91C511.732 897.777 510.686 898.65 509.64 899.517C506.927 851.626 496.097 804.297 482.685 758.38C475.549 733.953 467.528 709.783 458.939 685.829C450.637 662.675 442.371 639.271 431.846 617.027C420.239 592.492 404.449 570.571 383.088 553.798C399.93 544.817 417.114 536.517 434.578 528.768H434.584ZM787.65 832.742C786.897 840.241 786.228 847.739 785.636 855.25C782.958 889.37 781.362 923.573 780 957.765C779.48 970.878 779.008 983.997 778.607 997.117C778.051 997.589 777.484 998.049 776.91 998.504C776.808 998.588 776.707 998.665 776.605 998.743C776.396 998.905 776.181 999.066 775.971 999.228C775.332 999.712 774.686 1000.18 774.035 1000.66C772.439 1001.81 770.813 1002.92 769.176 1004.01C757.659 1011.65 745.334 1018.06 732.819 1023.87C714.829 1032.22 696.164 1038.62 677.647 1045.64C664.744 1050.53 652.025 1055.91 639.324 1061.3C611.461 1073.13 583.483 1084.57 554.466 1093.3C536.099 1098.82 517.452 1103.37 498.637 1107.06C487.813 1109.18 476.941 1111.02 466.028 1112.63C455.389 1114.19 444.643 1115.82 433.914 1116.6C420.263 1117.6 406.403 1116.88 392.746 1116.38C381.641 1115.97 370.543 1115.44 359.444 1114.81C360.394 1108.09 361.362 1101.37 362.342 1094.64C364.99 1076.45 367.698 1058.26 370.501 1040.09C373.603 1019.97 376.794 999.855 380.309 979.8C381.749 971.572 383.237 963.35 384.893 955.164C386.471 947.366 388.449 939.712 390.362 931.992C398.89 897.544 404.819 862.067 403.69 826.47C403.546 821.991 403.283 817.512 402.919 813.045C402.871 812.483 402.698 811.999 402.441 811.604C407.348 808.429 412.254 805.248 417.161 802.073C420.377 799.992 417.389 794.808 414.143 796.912C375.163 822.158 336.182 847.398 297.201 872.645C272.26 888.796 247.487 905.042 222.964 921.809C207.586 932.321 192.201 942.822 176.787 953.286C163.023 962.632 148.696 970.92 132.93 976.409C117.025 981.946 99.8482 984.858 83.0475 982.443C64.2864 979.746 47.8204 970.358 34.5101 957.053C16.8308 939.371 5.58844 914.717 5.88728 889.501C6.00681 879.252 7.75203 869.356 11.4995 859.77C17.5181 844.373 27.2722 829.729 39.0704 818.146C46.117 811.228 54.084 805.14 61.6088 798.76C70.5441 791.184 79.4794 783.608 88.4146 776.032C105.801 761.286 123.188 746.54 140.58 731.8C173.428 703.959 206.36 676.19 240.285 649.658C274.215 623.12 309.197 597.838 345.846 575.175C356.192 568.777 366.705 562.702 377.35 556.902C397.115 571.701 412.195 591.356 423.347 613.272C434.506 635.199 442.736 658.651 451.116 681.745C468.09 728.523 483.181 776.193 493.312 824.963C498.828 851.542 502.827 878.487 503.968 905.634C504.082 908.361 507.088 909.395 509.072 907.751C521.408 897.484 533.745 887.223 546.081 876.956L568.117 858.616C569.647 857.343 571.434 856.147 572.815 854.706C574.369 853.085 573.831 850.879 573.705 848.798C573.46 844.803 573.12 840.821 572.707 836.844C568.966 801.062 559.749 765.914 548.991 731.663C538.048 696.807 525.108 662.58 511.003 628.885C503.723 611.496 496.491 593.94 487.227 577.502C477.419 560.107 464.874 544.458 449.203 532.003C446.549 529.892 443.824 527.871 441.039 525.939C447.368 523.188 453.727 520.498 460.128 517.879C469.584 514.004 479.093 510.255 488.632 506.589C488.733 506.547 488.835 506.505 488.931 506.457C505.612 514.62 523.488 520.294 541.652 524.062C542.769 524.295 543.887 524.516 545.005 524.737C543.552 529.802 543.511 535.148 544.712 540.374C546.218 546.94 549.601 553.027 554.024 558.068C563.706 569.112 578.612 573.992 592.592 576.706C600.487 578.243 608.526 579.457 616.553 579.959C624.789 580.473 633.234 580.061 641.201 577.765C653.938 574.087 665.987 564.879 669.83 551.759C673.452 539.375 669.059 525.06 658.462 517.514C661.032 516.168 663.542 514.697 665.987 513.089C675.328 506.936 683.331 499.049 689.96 490.109C690.432 490.791 691.209 491.269 692.291 491.275C705.32 491.359 718.654 491.162 731.935 491.658C731.737 492.316 731.749 493.063 732.096 493.834C738.945 509.184 743.039 525.748 744.408 542.491C745.872 560.334 747.169 578.345 746.171 596.254C744.988 617.452 739.824 638.338 734.355 658.783C721.517 706.817 704.985 753.883 688.023 800.59C680.451 821.447 672.663 842.226 664.851 862.993C664.242 864.62 665.556 866.121 666.937 866.671C685.788 874.181 704.639 881.686 723.489 889.196C726.155 890.261 728.821 891.319 731.486 892.383C732.634 892.844 734.319 892.09 734.863 891.008C744.719 871.383 752.56 850.735 759.84 830.04C768.739 804.722 776.611 779.045 783.825 753.201C784.626 750.337 785.415 747.473 786.192 744.603C787.303 762.207 788.666 779.793 788.947 797.433C789.132 809.224 788.821 821.028 787.638 832.766L787.65 832.742ZM809.77 602.168C807.553 623.527 803.566 644.713 799.167 665.719C795.049 685.38 790.483 704.982 785.474 724.469C785.307 724.792 785.2 725.175 785.176 725.605C777.023 757.208 767.706 788.529 757.204 819.372C749.548 841.861 741.33 864.357 730.817 885.698C712.719 878.487 694.621 871.281 676.518 864.07C674.856 863.406 673.195 862.748 671.533 862.084C687.013 820.909 702.29 779.655 716.293 737.947C724.266 714.202 731.881 690.319 738.533 666.168C743.99 646.345 749.166 626.164 751.371 605.672C753.552 585.401 752.058 564.992 750.546 544.733C749.177 526.453 745.06 508.7 737.72 491.897C759.302 493.063 780.591 496.471 800.04 506.338C803.255 512.557 805.951 518.937 807.577 525.76C809.238 532.744 810.188 539.967 810.971 547.089C812.992 565.405 811.647 583.894 809.752 602.162L809.77 602.168Z" fill="#231815"/>
<path d="M583.668 280.128C584.332 281.611 585.037 283.082 585.772 284.535C586.071 285.127 586.621 285.546 587.248 285.785C587.111 286.138 586.979 286.484 586.854 286.837C586.328 288.314 587.446 290.174 588.94 290.515C590.613 290.897 592.054 290.007 592.616 288.428C592.747 288.057 592.884 287.686 593.028 287.322C593.082 287.19 593.13 287.041 593.189 286.909C593.201 286.885 593.213 286.867 593.219 286.849C593.548 286.096 593.906 285.36 594.289 284.631C594.988 283.309 595.771 282.03 596.632 280.804C596.835 280.511 597.044 280.224 597.259 279.937C597.277 279.913 597.301 279.871 597.331 279.829C597.325 279.841 597.319 279.847 597.313 279.859C597.385 279.745 597.493 279.626 597.576 279.524C598.066 278.914 598.58 278.316 599.106 277.736C600.14 276.6 601.246 275.53 602.405 274.525C602.704 274.268 603.003 274.017 603.308 273.766C603.422 273.676 603.529 273.586 603.643 273.497C603.667 273.473 603.69 273.461 603.708 273.443C603.708 273.443 603.708 273.443 603.714 273.437C604.342 272.965 604.981 272.504 605.639 272.068C606.888 271.23 608.185 270.465 609.524 269.777C610.157 269.449 610.803 269.138 611.46 268.845C611.616 268.773 611.777 268.695 611.938 268.629C611.974 268.617 612.004 268.605 612.028 268.593C612.393 268.444 612.757 268.3 613.128 268.163C614.604 267.613 616.11 267.158 617.64 266.794C618.334 266.632 619.033 266.483 619.738 266.363C620.091 266.303 620.443 266.249 620.796 266.196C620.808 266.196 620.808 266.196 620.82 266.196C620.832 266.196 620.838 266.196 620.85 266.196C621.065 266.172 621.274 266.148 621.489 266.124C622.984 265.968 624.484 265.909 625.984 265.944C626.737 265.962 627.484 266.01 628.231 266.076C628.602 266.112 629.044 266.1 629.403 266.202C629.331 266.184 628.697 266.094 629.241 266.184C629.486 266.219 629.731 266.261 629.976 266.297C631.483 266.548 632.971 266.901 634.429 267.344C635.11 267.553 635.78 267.774 636.449 268.019C636.784 268.139 637.113 268.271 637.441 268.402C637.597 268.468 638.212 268.791 637.513 268.426C637.698 268.522 637.908 268.599 638.099 268.683C639.497 269.305 640.854 270.011 642.163 270.794C643.376 271.517 644.697 272.283 645.779 273.216C645.809 273.246 645.845 273.269 645.869 273.293C646.036 273.425 646.203 273.557 646.371 273.694C646.646 273.921 646.921 274.148 647.189 274.382C647.787 274.89 648.367 275.422 648.929 275.966C650.005 277.007 651.027 278.101 651.989 279.255C652.228 279.548 652.467 279.841 652.7 280.134C652.7 280.14 652.712 280.146 652.718 280.158C652.826 280.302 652.933 280.445 653.035 280.589C653.519 281.246 653.985 281.922 654.427 282.616C655.234 283.871 655.969 285.175 656.621 286.52C656.776 286.837 656.926 287.16 657.075 287.483C657.165 287.68 657.248 287.872 657.332 288.069C657.356 288.117 657.386 288.177 657.416 288.219C657.703 288.823 657.894 289.522 658.103 290.138C658.593 291.591 658.994 293.08 659.292 294.587C659.37 294.976 659.442 295.364 659.502 295.753C659.526 295.896 659.549 296.034 659.567 296.177C659.567 296.207 659.579 296.243 659.591 296.285C659.777 297.003 659.759 297.858 659.806 298.587C659.902 300.088 659.902 301.595 659.818 303.102C659.777 303.819 659.717 304.531 659.639 305.243C659.627 305.374 659.615 305.506 659.597 305.643C659.591 305.673 659.585 305.703 659.579 305.727C659.514 306.152 659.448 306.576 659.376 307.001C659.101 308.555 658.731 310.098 658.276 311.611C658.067 312.299 657.846 312.986 657.601 313.662C657.481 314.003 657.356 314.338 657.224 314.673C657.159 314.84 657.093 315.007 657.027 315.175C656.962 315.336 656.693 316.12 656.956 315.36C656.471 316.765 655.67 318.135 654.947 319.426C654.188 320.772 653.352 322.081 652.449 323.331C652.264 323.594 652.073 323.857 651.875 324.108C651.857 324.132 651.839 324.15 651.809 324.186C651.672 324.354 651.541 324.521 651.403 324.688C650.901 325.298 650.387 325.896 649.849 326.476C648.827 327.583 647.739 328.635 646.598 329.616C646.323 329.849 646.048 330.076 645.767 330.303C645.635 330.405 645.51 330.513 645.379 330.614C645.373 330.614 645.361 330.626 645.355 330.632C644.715 331.099 644.076 331.565 643.412 331.996C642.032 332.898 640.585 333.712 639.097 334.423C638.756 334.585 638.416 334.746 638.069 334.896C637.943 334.949 637.812 335.015 637.68 335.063C637.615 335.087 637.561 335.111 637.531 335.123C636.76 335.434 635.983 335.715 635.194 335.972C633.688 336.468 632.158 336.869 630.604 337.186C629.827 337.341 629.044 337.467 628.261 337.592C628.261 337.592 628.261 337.592 628.255 337.592C628.034 337.616 627.819 337.646 627.598 337.67C627.149 337.718 626.695 337.76 626.241 337.796C624.657 337.915 623.067 337.951 621.477 337.897C620.718 337.874 619.965 337.826 619.212 337.76C618.836 337.724 618.459 337.688 618.083 337.646C617.873 337.622 617.664 337.604 617.455 337.569C617.389 337.557 617.329 337.545 617.306 337.545C615.698 337.299 614.102 336.965 612.536 336.54C610.97 336.115 609.422 335.601 607.916 334.991C607.779 334.937 607.629 334.884 607.498 334.818C607.45 334.794 607.402 334.77 607.378 334.764C607.031 334.609 606.691 334.453 606.35 334.292C605.603 333.933 604.862 333.556 604.133 333.15C602.746 332.378 601.407 331.517 600.122 330.584C598.855 329.663 596.734 330.327 596.034 331.655C595.215 333.209 595.753 334.758 597.104 335.745C608.412 343.979 624.006 346.101 637.202 341.593C643.759 339.35 649.7 335.535 654.356 330.387C658.898 325.358 662.269 319.301 664.146 312.789C666.028 306.271 666.357 299.323 664.976 292.673C663.608 286.078 660.374 279.985 656.059 274.854C651.977 269.999 646.741 266.058 640.932 263.445C641.117 263.056 641.243 262.626 641.272 262.153C642.121 248.31 640.25 234.234 635.78 221.103C632.032 210.083 626.08 198.141 614.371 193.997C603.469 190.135 590.87 195.54 583.854 204.169C575.683 214.221 573.711 227.705 574.219 240.292C574.769 254.045 578.014 267.571 583.638 280.116L583.668 280.128ZM635.2 247.443C635.457 250.726 635.565 254.015 635.511 257.304C635.487 258.673 635.433 260.043 635.361 261.412C630.735 260.102 625.888 259.63 621.065 260.186C608.502 261.645 596.632 268.94 590.117 279.853C589.675 278.944 589.245 278.029 588.832 277.108C588.683 276.78 588.539 276.451 588.396 276.116C588.306 275.907 588.217 275.703 588.127 275.494C588.109 275.458 588.049 275.309 588.007 275.207C587.942 275.051 587.846 274.812 587.852 274.83C587.78 274.663 587.715 274.495 587.649 274.328C587.481 273.909 587.314 273.491 587.147 273.066C585.999 270.118 584.983 267.116 584.105 264.079C583.202 260.951 582.449 257.782 581.845 254.583C581.547 253.01 581.29 251.432 581.062 249.847C594.869 254.786 610.378 254.984 624.352 250.619C628.046 249.465 631.65 247.988 635.092 246.224C635.128 246.63 635.17 247.037 635.206 247.443H635.2ZM628.034 217.318C628.034 217.318 627.992 217.186 627.956 217.103C627.992 217.18 628.028 217.258 628.034 217.318ZM617.664 202.459C618.065 202.746 617.73 202.524 617.616 202.423C617.634 202.435 617.652 202.447 617.664 202.459ZM617.61 202.417C617.61 202.417 617.581 202.387 617.581 202.381C617.581 202.387 617.592 202.399 617.61 202.417ZM613.636 200.091C613.636 200.091 613.6 200.079 613.564 200.061C613.606 200.079 613.636 200.091 613.636 200.091ZM613.534 200.049C613.534 200.049 613.546 200.049 613.546 200.055C613.385 199.983 613.098 199.851 613.534 200.049ZM604.515 198.865C604.515 198.865 604.485 198.865 604.461 198.877C604.485 198.877 604.503 198.871 604.515 198.865ZM580.303 231.741C580.345 231.071 580.399 230.407 580.459 229.738C580.495 229.361 580.53 228.99 580.572 228.614C580.596 228.404 580.62 228.201 580.644 227.992C580.644 227.962 580.662 227.842 580.68 227.729C580.698 227.597 580.74 227.304 580.74 227.298C580.764 227.131 580.787 226.969 580.811 226.802C580.859 226.473 580.913 226.144 580.973 225.815C581.104 225.038 581.26 224.26 581.427 223.489C581.738 222.078 582.102 220.673 582.533 219.297C582.754 218.592 582.993 217.892 583.25 217.198C583.363 216.887 583.483 216.583 583.603 216.278C583.662 216.128 583.728 215.973 583.788 215.823C583.531 216.481 583.836 215.715 583.871 215.632C584.469 214.28 585.139 212.965 585.892 211.691C586.226 211.123 586.579 210.567 586.95 210.017C587.153 209.712 587.362 209.413 587.577 209.114C587.661 208.994 587.75 208.881 587.834 208.761C587.858 208.731 587.882 208.701 587.906 208.665C588.725 207.679 589.561 206.722 590.482 205.831C590.96 205.371 591.45 204.928 591.952 204.504C592.179 204.312 592.406 204.127 592.633 203.948C593.106 203.565 592.556 203.989 592.55 204.007C592.556 203.948 593.028 203.649 593.082 203.613C594.152 202.835 595.269 202.136 596.435 201.508C596.979 201.215 597.534 200.94 598.102 200.683C598.222 200.629 598.335 200.581 598.455 200.527C598.772 200.402 599.082 200.276 599.405 200.162C600.624 199.72 601.868 199.361 603.141 199.11C603.457 199.044 603.774 198.99 604.091 198.937C604.181 198.925 604.276 198.913 604.366 198.901C604.999 198.841 605.627 198.787 606.26 198.769C606.9 198.751 607.534 198.763 608.173 198.799C608.454 198.817 608.741 198.841 609.022 198.871C609.093 198.877 609.225 198.883 609.327 198.895C609.38 198.913 609.44 198.925 609.488 198.937C610.761 199.152 612.01 199.487 613.217 199.941C613.253 199.953 613.439 200.025 613.546 200.073C613.803 200.192 614.066 200.306 614.317 200.437C614.939 200.742 615.542 201.077 616.128 201.442C616.636 201.753 617.12 202.094 617.604 202.441C617.676 202.512 617.855 202.632 617.909 202.674C618.19 202.901 618.465 203.134 618.74 203.373C619.726 204.247 620.647 205.191 621.501 206.19C621.693 206.411 621.884 206.638 622.069 206.872C622.165 206.991 622.254 207.105 622.35 207.224C622.762 207.798 623.187 208.366 623.581 208.958C624.31 210.053 624.992 211.183 625.619 212.337C626.271 213.533 626.874 214.753 627.436 215.991C627.574 216.301 627.717 216.606 627.849 216.923C627.861 216.959 627.884 217.001 627.908 217.043C627.92 217.073 627.938 217.127 627.986 217.246C628.243 217.868 628.494 218.49 628.733 219.118C631.082 225.247 632.833 231.603 633.987 238.061C634.106 238.743 634.22 239.431 634.327 240.112C633.963 240.16 633.598 240.274 633.246 240.465C631.62 241.338 629.964 242.134 628.273 242.869C628.267 242.869 628.255 242.875 628.243 242.881C628.261 242.875 628.273 242.869 628.291 242.863C628.273 242.869 628.255 242.881 628.237 242.887C628.153 242.923 628.016 242.977 628.016 242.977C627.879 243.036 627.735 243.09 627.598 243.15C627.209 243.306 626.821 243.461 626.426 243.605C625.565 243.933 624.699 244.238 623.826 244.531C620.449 245.65 616.983 246.493 613.469 247.049C613.056 247.115 612.644 247.18 612.231 247.234C612.201 247.234 612.183 247.234 612.148 247.246C611.897 247.276 611.652 247.306 611.401 247.336C610.486 247.443 609.566 247.527 608.651 247.593C606.9 247.724 605.137 247.784 603.38 247.772C601.581 247.76 599.782 247.683 597.989 247.527C597.11 247.449 596.237 247.354 595.365 247.246C595.365 247.246 595.353 247.246 595.347 247.246C595.12 247.216 594.893 247.18 594.666 247.144C594.169 247.067 593.673 246.989 593.177 246.905C589.221 246.212 585.33 245.147 581.57 243.73C581.194 243.587 580.793 243.563 580.399 243.622C580.22 241.177 580.124 238.725 580.136 236.267C580.142 234.761 580.19 233.26 580.285 231.753L580.303 231.741Z" fill="#231815"/>
<path d="M628.25 242.863C628.088 242.929 628.022 242.959 628.022 242.959C628.094 242.929 628.172 242.899 628.244 242.869L628.25 242.863Z" fill="#231815"/>
<path d="M514.224 307.258C516.292 308.771 518.497 310.08 520.81 311.186C526.106 313.662 531.909 315.193 537.796 314.906C543.217 314.643 548.549 312.926 552.995 309.787C560.903 304.196 565.72 295.34 568.188 286.132C570.77 276.492 570.914 266.285 569.485 256.455C568.051 246.594 564.728 236.985 559.898 228.273C557.436 223.836 554.543 219.65 551.322 215.733C549.768 213.844 548.124 212.032 546.391 210.304C545.518 209.431 544.634 208.534 543.689 207.739C542.679 206.889 541.376 206.333 540.223 205.7C538.866 204.952 537.521 204.145 536.105 203.523C534.067 202.626 531.981 201.974 529.776 201.669C525.233 201.035 520.643 201.43 516.232 202.686C507.578 205.149 499.324 210.639 494.59 218.406C489.014 227.555 488.858 238.809 489.875 249.154C490.406 254.559 491.148 259.959 492.098 265.305C493.024 270.507 494.22 275.673 495.929 280.678C497.668 285.773 499.904 290.742 502.856 295.251C505.928 299.939 509.705 303.957 514.224 307.27V307.258ZM524.994 306.552C525.066 306.582 525.096 306.6 524.994 306.552V306.552ZM563.777 258.404C563.777 258.404 563.777 258.386 563.777 258.374C563.777 258.386 563.777 258.392 563.777 258.404ZM563.61 257.352C563.652 257.621 563.694 257.89 563.73 258.159C563.73 258.195 563.748 258.243 563.754 258.284C563.754 258.308 563.765 258.38 563.777 258.518C563.849 259.098 563.921 259.672 563.981 260.252C564.106 261.448 564.208 262.65 564.279 263.852C564.417 266.178 564.447 268.51 564.369 270.836C564.327 272.038 564.262 273.24 564.16 274.441C564.112 274.986 564.064 275.524 564.005 276.068C563.975 276.337 563.945 276.612 563.915 276.881C563.897 277.037 563.879 277.192 563.861 277.348C563.861 277.377 563.849 277.461 563.837 277.551C563.813 277.706 563.777 277.981 563.765 278.047C563.724 278.334 563.676 278.615 563.634 278.902C563.544 279.44 563.449 279.973 563.347 280.505C563.132 281.611 562.893 282.711 562.612 283.806C562.074 285.922 561.417 288.015 560.622 290.054C560.514 290.323 560.407 290.592 560.299 290.862C560.293 290.88 560.287 290.891 560.281 290.903C560.263 290.939 560.245 290.987 560.215 291.047C559.982 291.579 559.743 292.105 559.492 292.626C559.026 293.594 558.524 294.545 557.98 295.478C557.43 296.429 556.832 297.361 556.205 298.258C556.061 298.462 555.918 298.659 555.775 298.862C555.715 298.946 555.649 299.03 555.583 299.119C555.559 299.155 555.541 299.179 555.523 299.203C555.237 299.592 554.914 299.957 554.597 300.321C553.916 301.111 553.193 301.87 552.428 302.588C552.045 302.946 551.657 303.293 551.262 303.628C551.095 303.772 550.921 303.909 550.748 304.053C550.772 304.041 550.784 304.029 550.808 304.017C550.766 304.041 550.73 304.071 550.694 304.1C550.67 304.118 550.646 304.136 550.623 304.154C550.575 304.196 550.527 304.232 550.473 304.268C549.601 304.914 548.692 305.506 547.748 306.044C547.288 306.307 546.815 306.552 546.343 306.785C546.116 306.893 545.895 307.001 545.668 307.102C545.554 307.156 545.441 307.204 545.327 307.252C545.859 307.013 545.297 307.264 545.19 307.306C543.935 307.796 542.644 308.191 541.329 308.478C540.803 308.591 540.271 308.681 539.745 308.765C539.996 308.723 539.195 308.83 539.069 308.842C538.729 308.872 538.388 308.902 538.041 308.92C536.756 308.992 535.459 308.98 534.174 308.878C533.828 308.848 533.487 308.812 533.14 308.777C533.129 308.777 533.105 308.777 533.081 308.771C532.979 308.759 532.824 308.735 532.776 308.729C532.089 308.627 531.401 308.495 530.72 308.346C529.477 308.071 528.251 307.73 527.044 307.324C526.458 307.126 525.879 306.911 525.299 306.684C525.15 306.624 525.006 306.564 524.863 306.504C524.839 306.492 524.815 306.486 524.785 306.468C524.462 306.325 524.133 306.175 523.811 306.026C521.534 304.944 519.364 303.658 517.326 302.175C517.093 302.002 516.86 301.828 516.627 301.655C517.165 302.049 516.358 301.44 516.256 301.356C515.772 300.967 515.3 300.566 514.834 300.154C513.877 299.305 512.957 298.414 512.084 297.475C511.69 297.056 511.307 296.626 510.937 296.189C510.722 295.938 510.512 295.687 510.309 295.436C510.231 295.34 509.992 295.029 509.915 294.934C509.203 293.983 508.516 293.014 507.871 292.022C506.496 289.905 505.283 287.686 504.207 285.408C503.944 284.846 503.687 284.284 503.442 283.71C503.4 283.608 503.358 283.513 503.31 283.411C513.238 284.744 523.428 283.812 532.889 280.433C542.04 277.162 550.372 271.781 557.083 264.748C559.432 262.291 561.59 259.63 563.514 256.819C563.544 256.999 563.574 257.172 563.604 257.352H563.61ZM501.218 277.659C500.579 275.667 500.011 273.652 499.515 271.619C498.284 266.632 497.423 261.555 496.724 256.473C496.7 256.305 496.676 256.138 496.658 255.976C496.658 255.97 496.658 255.946 496.652 255.929C496.64 255.833 496.622 255.695 496.616 255.647C496.598 255.522 496.581 255.396 496.569 255.271C496.485 254.613 496.401 253.955 496.317 253.291C496.162 252.036 496.019 250.774 495.887 249.512C495.636 247.049 495.451 244.579 495.385 242.104C495.319 239.61 495.373 237.111 495.612 234.629C495.642 234.348 495.672 234.067 495.702 233.786C495.72 233.63 495.738 233.481 495.756 233.325C495.845 232.745 495.929 232.171 496.037 231.597C496.258 230.383 496.539 229.182 496.885 227.998C497.041 227.465 497.208 226.939 497.387 226.413C497.489 226.114 497.597 225.815 497.71 225.522C497.752 225.408 497.794 225.301 497.836 225.187C497.836 225.187 497.895 225.032 497.943 224.912C497.979 224.834 498.021 224.733 498.033 224.697C498.081 224.589 498.128 224.482 498.176 224.374C498.308 224.087 498.445 223.8 498.589 223.513C498.876 222.945 499.174 222.383 499.497 221.833C499.617 221.629 501.183 219.052 501.314 219.124C501.314 219.124 500.842 219.71 501.201 219.273C501.26 219.202 501.32 219.124 501.38 219.046C501.523 218.873 501.667 218.699 501.816 218.526C502.157 218.131 502.503 217.743 502.862 217.366C503.543 216.648 504.261 215.961 505.008 215.309C505.384 214.98 505.773 214.657 506.167 214.34C506.215 214.304 506.251 214.274 506.275 214.25C506.52 214.065 506.765 213.886 507.01 213.706C508.707 212.486 510.512 211.416 512.389 210.501C512.819 210.292 513.256 210.089 513.698 209.891C513.734 209.879 513.77 209.855 513.812 209.837C513.841 209.826 513.877 209.814 513.931 209.79C514.188 209.688 514.439 209.586 514.696 209.485C515.652 209.114 516.627 208.785 517.613 208.498C518.623 208.205 519.639 207.96 520.673 207.757C521.133 207.667 521.593 207.589 522.059 207.517C522.077 207.517 522.095 207.517 522.113 207.511C522.125 207.511 522.137 207.511 522.161 207.511C522.46 207.481 522.753 207.446 523.052 207.422C524.062 207.332 525.078 207.296 526.094 207.314C526.548 207.326 526.996 207.344 527.451 207.374C527.678 207.392 527.899 207.41 528.12 207.434C528.21 207.446 528.299 207.452 528.389 207.464C528.383 207.464 528.377 207.464 528.371 207.458C528.377 207.458 528.389 207.458 528.401 207.47C528.437 207.47 528.467 207.476 528.502 207.481C528.658 207.499 528.748 207.547 528.748 207.565C529.058 207.619 529.411 207.631 529.68 207.691C530.176 207.792 530.66 207.912 531.15 208.044C531.604 208.169 532.053 208.313 532.495 208.468C532.698 208.54 532.907 208.618 533.111 208.695C533.123 208.695 533.14 208.707 533.152 208.713C533.093 208.683 533.093 208.677 533.26 208.755C533.284 208.767 533.302 208.773 533.32 208.785C533.368 208.809 533.421 208.827 533.457 208.833C533.433 208.833 533.391 208.815 533.356 208.803C534.671 209.437 535.932 210.154 537.211 210.86L538.699 211.679C538.932 211.805 539.165 211.936 539.398 212.062C539.524 212.134 539.649 212.229 539.787 212.277C539.799 212.277 539.805 212.277 539.811 212.277C540.659 213.072 541.508 213.868 542.327 214.693C543.97 216.343 545.536 218.071 547.019 219.865C547.389 220.314 547.754 220.768 548.118 221.223C548.232 221.366 548.465 221.677 548.435 221.635C548.596 221.851 548.764 222.066 548.925 222.281C549.624 223.214 550.3 224.165 550.951 225.127C553.617 229.05 555.93 233.212 557.86 237.541C557.974 237.792 558.082 238.037 558.189 238.289C558.249 238.432 558.315 238.576 558.374 238.719C558.374 238.725 558.386 238.743 558.392 238.761C558.452 238.904 558.584 239.221 558.613 239.293C558.745 239.616 558.876 239.945 559.002 240.268C559.444 241.392 559.857 242.522 560.245 243.664C560.783 245.243 561.273 246.839 561.715 248.454C561.602 248.586 561.5 248.723 561.411 248.884C560.329 250.828 559.151 252.711 557.86 254.517C557.562 254.936 557.257 255.354 556.946 255.767C556.844 255.905 556.575 256.245 556.623 256.186C556.474 256.377 556.324 256.568 556.169 256.76C555.494 257.591 554.8 258.41 554.083 259.205C552.595 260.856 551.023 262.428 549.361 263.905C548.531 264.647 547.682 265.358 546.815 266.052C546.768 266.094 546.564 266.249 546.457 266.333C546.391 266.381 546.319 266.441 546.289 266.459C546.194 266.53 546.098 266.602 546.002 266.674C545.56 267.009 545.106 267.332 544.658 267.655C542.841 268.934 540.958 270.112 539.01 271.183C538.018 271.727 537.013 272.241 535.997 272.725C535.477 272.97 534.951 273.21 534.425 273.443C534.306 273.497 533.87 273.676 533.858 273.682C533.589 273.79 533.32 273.903 533.051 274.005C530.786 274.896 528.461 275.649 526.106 276.253C524.904 276.564 523.697 276.833 522.478 277.067C521.91 277.174 521.348 277.276 520.775 277.371C520.47 277.419 520.165 277.467 519.854 277.515C519.776 277.527 519.693 277.539 519.615 277.551C519.717 277.539 519.687 277.539 519.603 277.551C519.555 277.557 519.507 277.563 519.46 277.569C519.519 277.563 519.561 277.551 519.597 277.551C519.531 277.563 519.43 277.575 519.328 277.587C516.603 277.928 513.853 278.083 511.11 278.041C509.735 278.023 508.367 277.957 506.998 277.844C506.293 277.784 505.587 277.712 504.882 277.629C504.751 277.611 504.619 277.593 504.488 277.581C504.488 277.581 504.488 277.581 504.476 277.581C504.087 277.521 503.699 277.467 503.31 277.407C502.605 277.294 501.864 277.377 501.218 277.653V277.659Z" fill="#231815"/>
<path d="M528.748 207.559C528.622 207.535 528.503 207.505 528.401 207.464C528.401 207.464 528.395 207.464 528.389 207.464C528.646 207.583 528.754 207.589 528.748 207.559Z" fill="#231815"/>
<path d="M533.315 208.785C533.255 208.761 533.201 208.737 533.146 208.713C533.195 208.737 533.273 208.773 533.345 208.803C533.333 208.803 533.321 208.791 533.315 208.785Z" fill="#231815"/>
<path d="M550.629 304.137C550.629 304.137 550.677 304.101 550.701 304.083C550.719 304.071 550.737 304.053 550.755 304.041C550.372 304.28 550.498 304.226 550.629 304.137Z" fill="#231815"/>
<path d="M556.785 405.055C556.158 405.001 555.524 404.935 554.896 404.869C554.562 404.833 554.227 404.792 553.892 404.75C553.725 404.732 553.558 404.708 553.39 404.684C553.354 404.684 553.325 404.678 553.295 404.672C553.265 404.672 553.229 404.66 553.181 404.654C551.842 404.463 550.51 404.247 549.183 403.99C546.445 403.47 543.738 402.806 541.066 402.017C538.436 401.24 535.842 400.325 533.302 399.29C533.147 399.225 532.992 399.165 532.836 399.099C532.794 399.081 532.651 399.021 532.561 398.985C532.531 398.973 532.507 398.961 532.501 398.961C532.346 398.896 532.191 398.83 532.035 398.758C531.342 398.453 530.649 398.136 529.961 397.813C528.742 397.239 527.535 396.629 526.339 395.996C523.883 394.68 521.492 393.245 519.185 391.684C518.701 391.355 518.217 391.021 517.745 390.68C517.494 390.5 517.243 390.315 516.992 390.13C516.896 390.058 516.543 389.789 516.43 389.705C515.468 388.946 514.523 388.162 513.621 387.331C512.593 386.386 511.607 385.394 510.686 384.341C510.459 384.078 510.232 383.815 510.011 383.546C509.915 383.426 509.82 383.307 509.724 383.187C509.706 383.163 509.694 383.145 509.676 383.127C509.664 383.109 509.646 383.092 509.628 383.062C509.222 382.506 508.827 381.949 508.457 381.369C508.092 380.795 507.746 380.209 507.429 379.605C507.268 379.306 507.118 379.001 506.975 378.696C506.909 378.559 506.849 378.421 506.783 378.284C506.682 378.057 506.64 378.021 506.634 378.051C506.52 377.782 506.425 377.345 506.377 377.208C506.263 376.885 506.162 376.562 506.066 376.233C505.863 375.533 505.708 374.828 505.576 374.116C505.301 372.573 503.341 371.563 501.9 372.029C500.245 372.567 499.516 374.056 499.814 375.707C501.811 386.865 511.876 394.614 521.11 399.924C531.258 405.76 542.536 409.366 554.143 410.753C560.515 411.513 566.97 411.525 573.341 410.777C574.889 410.598 576.407 409.533 576.329 407.787C576.263 406.322 575.002 404.6 573.341 404.798C567.848 405.443 562.296 405.527 556.785 405.049V405.055Z" fill="#231815"/>
<g style="mix-blend-mode:hard-light">
<path d="M475.932 526.775C481.242 495.92 488 502.5 536.5 519C666.5 544 689 488 689 488C689 509.24 708.686 506.869 709.571 557.63C710.456 608.391 660.896 625.311 632.576 645.217C604.256 665.123 553.812 640.241 521.067 617.348C488.322 594.456 470.622 557.63 475.932 526.775Z" fill="#1C3354" fill-opacity="0.2"/>
</g>
</g>
<defs>
<clipPath id="clip0_928_57">
<rect width="818" height="1123" fill="white"/>
</clipPath>
</defs>
</svg>
