<svg width="840" height="512" viewBox="0 0 840 512" fill="none" xmlns="http://www.w3.org/2000/svg">
<path d="M60.6029 29.3431C-30.4069 29.3431 -3.93131 313.755 48.4683 508.323H683.331C833.359 398.086 874.176 162.73 810.745 121.391C760 88.3199 662.371 189.922 619.9 244.857C640.124 189.922 668.438 76.745 619.9 63.5166C571.361 50.2881 491.567 167.139 457.737 227.219C479.8 167.323 512.343 41.4692 466.01 17.217C419.678 -7.03515 325.727 147.113 284.542 227.219C317.085 161.26 364.631 23.8313 294.471 1.78385C224.31 -20.2636 157.129 167.507 132.308 264.148C138.743 185.88 133.411 29.3431 60.6029 29.3431Z" fill="#696D27"/>
<path d="M111.044 508.322C75.5003 382.352 59.863 131.98 57.4673 58.8025" stroke="#525027" stroke-width="6" stroke-linecap="round"/>
<path d="M473.664 508.323C461.251 370.462 540.961 227.373 618.058 79.7112" stroke="#525027" stroke-width="6" stroke-linecap="round"/>
<path d="M618.691 508.324C638.968 384.183 704.958 254.815 794.469 135.902" stroke="#525027" stroke-width="6" stroke-linecap="round"/>
<path d="M348.872 508.323C324.696 382.876 367.167 221.493 451.45 42.469" stroke="#525027" stroke-width="6" stroke-linecap="round"/>
<path d="M205.131 508.324C182.261 397.904 215.584 222.8 282.227 24.8289" stroke="#525027" stroke-width="6" stroke-linecap="round"/>
</svg>
