<svg width="997" height="607" viewBox="0 0 997 607" fill="none" xmlns="http://www.w3.org/2000/svg">
<path d="M72.1222 34.8391C-35.9339 34.8391 -4.49938 372.521 57.7147 603.533H811.488C989.617 472.648 1038.08 193.209 962.766 144.128C902.517 104.862 786.602 225.494 736.176 290.718C760.188 225.494 793.806 91.1194 736.176 75.4133C678.546 59.7071 583.806 198.445 543.64 269.777C569.835 198.663 608.473 49.2364 553.463 20.4418C498.453 -8.35284 386.904 174.667 338.006 269.777C376.644 191.464 433.095 28.2949 349.794 2.11797C266.492 -24.0589 186.727 198.881 157.257 313.623C164.898 220.695 158.567 34.8391 72.1222 34.8391Z" fill="#5B5F26"/>
<path d="M132.011 603.533C89.8101 453.968 71.2438 156.701 68.3994 69.8176" stroke="#525027" stroke-width="6" stroke-linecap="round"/>
<path d="M562.55 603.532C547.812 439.849 642.451 269.96 733.989 94.6411" stroke="#525027" stroke-width="6" stroke-linecap="round"/>
<path d="M734.74 603.533C758.815 456.141 837.165 302.542 943.442 161.356" stroke="#525027" stroke-width="6" stroke-linecap="round"/>
<path d="M414.384 603.532C385.68 454.588 436.106 262.978 536.176 50.4231" stroke="#525027" stroke-width="6" stroke-linecap="round"/>
<path d="M243.721 603.534C216.567 472.433 256.132 264.532 335.257 29.48" stroke="#525027" stroke-width="6" stroke-linecap="round"/>
</svg>
