<svg width="488" height="299" viewBox="0 0 488 299" fill="none" xmlns="http://www.w3.org/2000/svg">
<path d="M453.111 17.0687C506.051 17.0687 490.65 182.509 460.169 295.688H90.8736C3.60297 231.564 -20.1398 94.659 16.7577 70.6124C46.2757 51.3752 103.066 110.476 127.771 142.432C116.007 110.476 99.5364 44.6421 127.771 36.9472C156.006 29.2523 202.422 97.224 222.1 132.172C209.266 97.3308 190.336 24.1224 217.288 10.015C244.239 -4.0923 298.89 85.5747 322.846 132.172C303.916 93.804 276.259 13.8625 317.071 1.03766C357.883 -11.7872 396.962 97.4377 411.4 153.653C407.657 108.125 410.759 17.0687 453.111 17.0687Z" fill="#ACB341"/>
<path d="M423.77 295.688C444.445 222.412 453.541 76.7721 454.935 34.2051" stroke="#6F6A0E" stroke-width="6" stroke-linecap="round"/>
<path d="M212.836 295.688C220.056 215.495 173.689 132.262 128.842 46.3674" stroke="#6F6A0E" stroke-width="6" stroke-linecap="round"/>
<path d="M128.474 295.688C116.68 223.476 78.2935 148.224 26.2252 79.0527" stroke="#6F6A0E" stroke-width="6" stroke-linecap="round"/>
<path d="M285.426 295.688C299.49 222.716 274.784 128.841 225.757 24.7039" stroke="#6F6A0E" stroke-width="6" stroke-linecap="round"/>
<path d="M369.04 295.689C382.343 231.458 362.959 129.601 324.193 14.4424" stroke="#6F6A0E" stroke-width="6" stroke-linecap="round"/>
</svg>
